<svg width="17" height="20" viewBox="0 0 17 20" fill="none" xmlns="http://www.w3.org/2000/svg">
<path fill-rule="evenodd" clip-rule="evenodd" d="M16.4817 14.0825C15.8054 13.8851 15.1978 13.4243 14.6704 12.7002C14.1431 11.9762 13.8794 11.1534 13.8794 10.2539C13.8794 9.42018 14.1316 8.6631 14.6246 7.98294C14.8997 7.5991 15.3354 7.17127 15.9315 6.68848C15.5417 6.22773 15.1404 5.85481 14.7392 5.59157C14.0284 5.11972 13.2145 4.87849 12.2973 4.87849C11.7356 4.87849 11.0707 5.01003 10.3141 5.25143C9.55745 5.50373 9.00713 5.62434 8.67466 5.62434C8.41102 5.62434 7.88368 5.51465 7.09265 5.29525C6.29011 5.07588 5.62525 4.96619 5.0635 4.96619C3.74512 4.96619 2.66747 5.4928 1.80766 6.54587C0.947852 7.61003 0.512207 8.97033 0.512207 10.6488C0.512207 12.4479 1.08544 14.28 2.19747 16.1668C3.3324 18.0537 4.46733 19.0082 5.64816 19.0082C6.02649 19.0082 6.5309 18.8875 7.16142 18.6352C7.78049 18.3939 8.33077 18.2731 8.78934 18.2731C9.25934 18.2731 9.844 18.3828 10.5204 18.6242C11.2082 18.8546 11.7356 18.9752 12.1254 18.9752C13.0998 18.9752 14.0858 18.2621 15.0717 16.8251C15.7366 15.8706 16.1952 14.9491 16.4817 14.0825ZM12.1712 1.21436C12.1712 1.13759 12.1598 1.07173 12.1598 0.99496C12.1483 0.929118 12.1254 0.852349 12.1024 0.753586C10.7726 1.04973 9.80965 1.58744 9.23641 2.37728C8.66323 3.16712 8.36518 4.1105 8.34225 5.19649C8.88102 5.15264 9.27082 5.0868 9.53447 5.01003C9.94718 4.87849 10.3599 4.6151 10.7726 4.22019C11.2541 3.75942 11.6095 3.25482 11.8388 2.70635C12.0566 2.16881 12.1712 1.66421 12.1712 1.21436Z" fill="white"/>
</svg>
