<svg width="177" height="203" viewBox="0 0 177 203" fill="none" xmlns="http://www.w3.org/2000/svg">
<path d="M1 149.357V62.3471C1 61.5662 1.85508 61.0866 2.52144 61.4938L83.1603 110.772C83.4576 110.953 83.6389 111.277 83.6389 111.625V199.898C83.6389 200.684 82.7738 201.163 82.1078 200.745L1.46893 150.204C1.17716 150.021 1 149.701 1 149.357Z" fill="white" stroke="black"/>
<path d="M90.9305 114.216L90.9305 201.243C90.9305 202.019 91.7744 202.499 92.441 202.103L175.51 152.791C175.814 152.61 176 152.284 176 151.931V63.6386C176 62.8584 175.146 62.3787 174.48 62.7845L91.4105 113.362C91.1124 113.543 90.9305 113.867 90.9305 114.216Z" fill="white" stroke="black"/>
<path d="M86.7421 1.33516L4.84541 51.9209C4.79765 51.9504 4.77377 51.9652 4.75699 51.9765C4.1736 52.3703 4.16884 53.2276 4.74783 53.6279C4.76448 53.6394 4.78819 53.6544 4.83562 53.6845L86.7324 105.535C86.7529 105.548 86.7631 105.554 86.7727 105.56C87.0881 105.75 87.4822 105.751 87.7988 105.563C87.8084 105.558 87.8187 105.551 87.8393 105.539L170.923 53.6881C170.971 53.658 170.995 53.6429 171.012 53.6315C171.598 53.2318 171.593 52.3663 171.003 51.9731C170.986 51.9618 170.962 51.9471 170.913 51.9175L87.8295 1.33168C87.8092 1.31936 87.7991 1.3132 87.7896 1.30769C87.4776 1.12704 87.0926 1.12827 86.7818 1.31092C86.7725 1.3164 86.7626 1.32252 86.743 1.33457L86.7421 1.33516Z" fill="white" stroke="black"/>
<ellipse rx="9.14959" ry="15.3053" transform="matrix(0.851742 -0.523961 0.476416 0.87922 40.3903 130.959)" fill="black"/>
<ellipse rx="9.14959" ry="15.3053" transform="matrix(0.851742 -0.523961 0.476416 0.87922 40.3903 130.959)" fill="black"/>
<ellipse rx="9.14959" ry="15.3053" transform="matrix(0.851742 -0.523961 0.476415 0.87922 16.0848 143.564)" fill="black"/>
<ellipse rx="9.14959" ry="15.3053" transform="matrix(0.851742 -0.523961 0.476415 0.87922 16.0848 143.564)" fill="black"/>
<ellipse rx="9.14959" ry="15.3053" transform="matrix(0.851742 -0.523961 0.476415 0.87922 67.1264 117.667)" fill="black"/>
<ellipse rx="9.14959" ry="15.3053" transform="matrix(0.851742 -0.523961 0.476415 0.87922 67.1264 117.667)" fill="black"/>
<ellipse rx="9.14959" ry="15.3053" transform="matrix(0.851742 -0.523961 0.476415 0.87922 67.1264 174.641)" fill="black"/>
<ellipse rx="9.14959" ry="15.3053" transform="matrix(0.851742 -0.523961 0.476415 0.87922 67.1264 174.641)" fill="black"/>
<ellipse rx="9.14959" ry="15.3053" transform="matrix(0.851742 -0.523961 0.476415 0.87922 16.0848 86.5839)" fill="black"/>
<ellipse rx="9.14959" ry="15.3053" transform="matrix(0.851742 -0.523961 0.476415 0.87922 16.0848 86.5839)" fill="black"/>
<ellipse cx="64.1944" cy="65.7436" rx="14.5833" ry="10.359" fill="black"/>
<ellipse cx="39.8889" cy="50.2051" rx="14.5833" ry="10.359" fill="black"/>
<ellipse cx="137.111" cy="52.7948" rx="14.5833" ry="10.359" fill="black"/>
<ellipse cx="112.806" cy="37.2564" rx="14.5833" ry="10.359" fill="black"/>
<ellipse cx="88.5" cy="21.7179" rx="14.5833" ry="10.359" fill="black"/>
<ellipse rx="8.22632" ry="15.1647" transform="matrix(0.844573 0.53544 -0.487562 0.873088 159.365 88.5679)" fill="black"/>
<ellipse rx="8.22631" ry="15.1647" transform="matrix(0.844573 0.53544 -0.487562 0.873088 158.744 143.977)" fill="black"/>
<ellipse rx="8.22631" ry="15.1647" transform="matrix(0.844573 0.53544 -0.487562 0.873088 107.703 120.67)" fill="black"/>
<ellipse rx="8.22631" ry="15.1647" transform="matrix(0.844573 0.53544 -0.487562 0.873088 107.703 175.054)" fill="black"/>
<ellipse cx="89.1944" cy="81.7436" rx="14.5833" ry="10.359" fill="black"/>
</svg>
