<svg width="74" height="79" viewBox="0 0 74 79" fill="none" xmlns="http://www.w3.org/2000/svg">
    <path d="M1 57.9281V25.7263C1 24.9578 1.83085 24.4765 2.49751 24.8589L34.4975 43.2118C34.8083 43.3901 35 43.721 35 44.0793V76.7516C35 77.525 34.1596 78.0057 33.493 77.6135L1.49298 58.79C1.18754 58.6103 1 58.2824 1 57.9281Z" fill="white" stroke="black"/>
    <path d="M38 45.0803L38 77.2981C38 78.0611 38.8202 78.5431 39.4867 78.1717L72.4867 59.786C72.8036 59.6094 73 59.2751 73 58.9124V26.2232C73 25.4554 72.1705 24.974 71.5039 25.3549L38.5039 44.2121C38.1923 44.3901 38 44.7215 38 45.0803Z" fill="white" stroke="black"/>
    <path d="M36.0021 1.28866L3.474 20.1455C2.81351 20.5284 2.80838 21.4803 3.4647 21.8703L35.9928 41.1986C36.3057 41.3846 36.695 41.3858 37.0091 41.2018L70.0085 21.8736C70.6721 21.4849 70.667 20.524 69.9993 20.1424L36.9997 1.28556C36.6904 1.10878 36.3103 1.10996 36.0021 1.28866Z" fill="white" stroke="black"/>
    <ellipse cx="17.2063" cy="51.1823" rx="3.70232" ry="6" transform="rotate(-30 17.2063 51.1823)" fill="black"/>
    <ellipse cx="17.2063" cy="51.1823" rx="3.70232" ry="6" transform="rotate(-30 17.2063 51.1823)" fill="black"/>
    <ellipse cx="7.2063" cy="56.0496" rx="3.70232" ry="6" transform="rotate(-30 7.2063 56.0496)" fill="black"/>
    <ellipse cx="7.2063" cy="56.0496" rx="3.70232" ry="6" transform="rotate(-30 7.2063 56.0496)" fill="black"/>
    <ellipse cx="28.2063" cy="46.0496" rx="3.70232" ry="6" transform="rotate(-30 28.2063 46.0496)" fill="black"/>
    <ellipse cx="28.2063" cy="46.0496" rx="3.70232" ry="6" transform="rotate(-30 28.2063 46.0496)" fill="black"/>
    <ellipse cx="28.2063" cy="68.0496" rx="3.70232" ry="6" transform="rotate(-30 28.2063 68.0496)" fill="black"/>
    <ellipse cx="28.2063" cy="68.0496" rx="3.70232" ry="6" transform="rotate(-30 28.2063 68.0496)" fill="black"/>
    <ellipse cx="7.2063" cy="34.0473" rx="3.70232" ry="6" transform="rotate(-30 7.2063 34.0473)" fill="black"/>
    <ellipse cx="7.2063" cy="34.0473" rx="3.70232" ry="6" transform="rotate(-30 7.2063 34.0473)" fill="black"/>
    <ellipse cx="27" cy="26" rx="6" ry="4" fill="black"/>
    <ellipse cx="17" cy="20" rx="6" ry="4" fill="black"/>
    <ellipse cx="57" cy="21" rx="6" ry="4" fill="black"/>
    <ellipse cx="47" cy="15" rx="6" ry="4" fill="black"/>
    <ellipse cx="37" cy="9" rx="6" ry="4" fill="black"/>
    <ellipse cx="37" cy="32" rx="6" ry="4" fill="black"/>
    <ellipse cx="66.1559" cy="34.8133" rx="3.32623" ry="5.94908" transform="rotate(30.753 66.1559 34.8133)" fill="black"/>
    <ellipse cx="65.9005" cy="56.209" rx="3.32623" ry="5.94908" transform="rotate(30.753 65.9005 56.209)" fill="black"/>
    <ellipse cx="44.9005" cy="47.209" rx="3.32623" ry="5.94908" transform="rotate(30.753 44.9005 47.209)" fill="black"/>
    <ellipse cx="44.9005" cy="68.2091" rx="3.32623" ry="5.94908" transform="rotate(30.753 44.9005 68.2091)" fill="black"/>
</svg>
