<svg width="211" height="248" viewBox="0 0 211 248" fill="none" xmlns="http://www.w3.org/2000/svg">
<path d="M17.5 170.357V83.3471C17.5 82.5662 18.3551 82.0866 19.0214 82.4938L99.6603 131.772C99.9576 131.953 100.139 132.277 100.139 132.625V220.898C100.139 221.684 99.2738 222.163 98.6078 221.745L17.9689 171.204C17.6772 171.021 17.5 170.701 17.5 170.357Z" fill="white" stroke="black"/>
<path d="M107.431 135.216L107.431 222.243C107.431 223.019 108.274 223.499 108.941 223.103L192.01 173.791C192.314 173.61 192.5 173.284 192.5 172.931V84.6386C192.5 83.8584 191.646 83.3787 190.98 83.7845L107.91 134.362C107.612 134.543 107.431 134.867 107.431 135.216Z" fill="white" stroke="black"/>
<path d="M103.242 22.3352L21.3454 72.9209C21.2977 72.9504 21.2738 72.9652 21.257 72.9765C20.6736 73.3703 20.6689 74.2276 21.2478 74.6279C21.2645 74.6394 21.2882 74.6544 21.3356 74.6845L103.232 126.535C103.253 126.548 103.263 126.554 103.273 126.56C103.588 126.75 103.982 126.751 104.299 126.563C104.308 126.558 104.319 126.551 104.339 126.539L187.423 74.6881C187.471 74.658 187.495 74.6429 187.512 74.6315C188.098 74.2318 188.093 73.3663 187.503 72.9731C187.486 72.9618 187.462 72.9471 187.413 72.9175L104.329 22.3317C104.309 22.3194 104.299 22.3132 104.29 22.3077C103.978 22.127 103.593 22.1283 103.282 22.3109C103.272 22.3164 103.263 22.3225 103.243 22.3346L103.242 22.3352Z" fill="white" stroke="black"/>
<ellipse rx="9.14959" ry="15.3053" transform="matrix(0.851742 -0.523961 0.476416 0.87922 56.8903 151.959)" fill="black"/>
<ellipse rx="9.14959" ry="15.3053" transform="matrix(0.851742 -0.523961 0.476416 0.87922 56.8903 151.959)" fill="black"/>
<ellipse rx="9.14959" ry="15.3053" transform="matrix(0.851742 -0.523961 0.476415 0.87922 32.5848 164.564)" fill="black"/>
<ellipse rx="9.14959" ry="15.3053" transform="matrix(0.851742 -0.523961 0.476415 0.87922 32.5848 164.564)" fill="black"/>
<ellipse rx="9.14959" ry="15.3053" transform="matrix(0.851742 -0.523961 0.476415 0.87922 83.6264 138.667)" fill="black"/>
<ellipse rx="9.14959" ry="15.3053" transform="matrix(0.851742 -0.523961 0.476415 0.87922 83.6264 138.667)" fill="black"/>
<ellipse rx="9.14959" ry="15.3053" transform="matrix(0.851742 -0.523961 0.476415 0.87922 83.6264 195.641)" fill="black"/>
<ellipse rx="9.14959" ry="15.3053" transform="matrix(0.851742 -0.523961 0.476415 0.87922 83.6264 195.641)" fill="black"/>
<ellipse rx="9.14959" ry="15.3053" transform="matrix(0.851742 -0.523961 0.476415 0.87922 32.5848 107.584)" fill="black"/>
<ellipse rx="9.14959" ry="15.3053" transform="matrix(0.851742 -0.523961 0.476415 0.87922 32.5848 107.584)" fill="black"/>
<ellipse cx="80.6945" cy="86.7436" rx="14.5833" ry="10.359" fill="black"/>
<ellipse cx="56.3889" cy="71.2051" rx="14.5833" ry="10.359" fill="black"/>
<ellipse cx="153.611" cy="73.7948" rx="14.5833" ry="10.359" fill="black"/>
<ellipse cx="129.306" cy="58.2564" rx="14.5833" ry="10.359" fill="black"/>
<ellipse cx="105" cy="42.7179" rx="14.5833" ry="10.359" fill="black"/>
<ellipse rx="8.22632" ry="15.1647" transform="matrix(0.844573 0.53544 -0.487562 0.873088 175.865 109.568)" fill="black"/>
<ellipse rx="8.22631" ry="15.1647" transform="matrix(0.844573 0.53544 -0.487562 0.873088 175.244 164.977)" fill="black"/>
<ellipse rx="8.22631" ry="15.1647" transform="matrix(0.844573 0.53544 -0.487562 0.873088 124.203 141.67)" fill="black"/>
<ellipse rx="8.22631" ry="15.1647" transform="matrix(0.844573 0.53544 -0.487562 0.873088 124.203 196.054)" fill="black"/>
<ellipse cx="105.694" cy="102.744" rx="14.5833" ry="10.359" fill="black"/>
<path d="M3 181V66L102.5 3L208.5 66V181L102.5 244.5L3 181Z" stroke="white" stroke-width="5"/>
</svg>
