<svg width="79" height="68" viewBox="0 0 79 68" fill="none" xmlns="http://www.w3.org/2000/svg">
<path d="M19.5264 0L0.768595 12.1613L17.0909 16.6443L36.0596 3.22514L19.5264 0ZM38.7815 4.78925L18.6639 18.6507L27.3673 38.8514L28.8216 37.7027L29.5425 35.2824C29.0545 34.9949 28.6362 34.5274 28.3554 33.9555C28.0746 33.3837 27.9476 32.741 27.9951 32.1313C28.0417 31.5395 28.2502 31.0122 28.5887 30.6302C28.9272 30.2482 29.377 30.0326 29.8692 30.0162C30.0727 30.0095 30.2803 30.037 30.4861 30.0979C30.667 30.1524 30.8451 30.2322 31.0167 30.3358L32.3698 25.7934C32.3862 25.7389 32.4063 25.6854 32.4299 25.6331C32.4332 25.6266 32.4365 25.62 32.4398 25.6134C32.4564 25.5776 32.4746 25.5424 32.4944 25.5079C32.4994 25.5 32.5045 25.4921 32.5097 25.4843C32.5293 25.4514 32.5503 25.4193 32.5728 25.388C32.601 25.3495 32.6314 25.3123 32.6638 25.2766C32.6675 25.2728 32.6712 25.269 32.675 25.2652C32.7042 25.2335 32.7349 25.2029 32.767 25.1737C32.8023 25.1416 32.8393 25.1111 32.8778 25.0823C32.9033 25.064 32.9301 25.0461 32.9569 25.0293C32.9718 25.0189 32.9869 25.0088 33.0022 24.9989C33.0302 24.9827 33.0587 24.9673 33.0878 24.9527C33.103 24.9444 33.1183 24.9363 33.1338 24.9285C33.1585 24.9172 33.1835 24.9065 33.2088 24.8965C33.2301 24.8869 33.2517 24.8777 33.2735 24.869C33.2981 24.8607 33.323 24.8529 33.348 24.8456C33.3711 24.8378 33.3944 24.8304 33.4179 24.8236C33.4407 24.818 33.4636 24.8128 33.4867 24.8082C33.5132 24.8017 33.54 24.7958 33.5668 24.7906C33.5957 24.7863 33.6247 24.7827 33.6537 24.7798C33.6747 24.7769 33.6957 24.7743 33.7168 24.7721H33.7185L33.7202 24.7717L39.4504 24.329C39.5816 23.8865 39.814 23.5135 40.1235 23.2486C40.433 22.9836 40.8082 22.8365 41.2102 22.8225C41.4138 22.8157 41.6215 22.8432 41.8274 22.9042C42.3829 23.0701 42.8998 23.4716 43.2806 24.0331L45.5034 23.8616L38.7815 4.78925ZM19.2626 5.96121C19.9837 5.97477 20.5948 6.11618 20.9923 6.36146C21.3898 6.60674 21.5493 6.94079 21.4436 7.30698C21.3223 7.72787 20.8603 8.15909 20.1592 8.50579C19.458 8.85249 18.5752 9.08626 17.705 9.15569C17.274 9.19006 16.8591 9.18305 16.484 9.13504C16.1088 9.08703 15.7808 8.99897 15.5185 8.87589C15.2563 8.75281 15.0651 8.59712 14.9557 8.41771C14.8463 8.2383 14.821 8.03868 14.8811 7.83025C14.9411 7.62184 15.0854 7.40868 15.3057 7.20296C15.5261 6.99724 15.8182 6.80298 16.1654 6.63128C16.5125 6.45958 16.908 6.3138 17.3291 6.20227C17.7502 6.09073 18.1888 6.01563 18.6198 5.98124C18.8386 5.96389 19.0542 5.95718 19.2626 5.96121ZM36.3435 9.58481C36.547 9.57808 36.7549 9.60555 36.9607 9.66648C37.5647 9.84515 38.1215 10.3017 38.5086 10.9357C38.8957 11.5697 39.0814 12.3291 39.0249 13.0471C38.9968 13.4026 38.9102 13.7372 38.7698 14.0318C38.6295 14.3264 38.4382 14.5752 38.2069 14.764C37.9755 14.9528 37.7087 15.0779 37.4217 15.1322C37.1346 15.1865 36.8329 15.1689 36.5338 15.0804C36.2347 14.992 35.9441 14.8344 35.6785 14.6166C35.4128 14.3989 35.1775 14.1252 34.9857 13.8113C34.794 13.4974 34.6498 13.1493 34.5612 12.787C34.4726 12.4247 34.4414 12.0553 34.4694 11.6998C34.516 11.1079 34.7245 10.5807 35.0631 10.1987C35.4016 9.81673 35.8512 9.60109 36.3435 9.58481ZM0 14.8488L8.00839 32.4335L24.0681 38.6554L16.2308 19.3071L0 14.8488ZM25.2028 17.5345C25.4064 17.5276 25.614 17.555 25.82 17.6158C26.424 17.7946 26.9807 18.2512 27.3677 18.8852C27.7547 19.5191 27.9404 20.2786 27.8838 20.9964C27.8558 21.3519 27.7692 21.6866 27.6288 21.9811C27.4885 22.2757 27.2972 22.5245 27.0659 22.7134C26.8346 22.9022 26.5678 23.0273 26.2808 23.0816C25.9937 23.1359 25.692 23.1184 25.393 23.0299C24.7889 22.8512 24.2322 22.3947 23.8451 21.7607C23.458 21.1267 23.2723 20.3672 23.3288 19.6493C23.3755 19.0575 23.584 18.5303 23.9224 18.1483C24.2608 17.7664 24.7106 17.5509 25.2028 17.5345ZM12.4003 19.54C12.8227 19.5192 13.3523 19.7454 13.8862 20.1747C14.4201 20.604 14.9203 21.2058 15.2898 21.8633C15.4855 22.2116 15.6388 22.5655 15.7411 22.9048C15.8434 23.2442 15.8926 23.5623 15.8858 23.8411C15.8791 24.1199 15.8166 24.3539 15.7019 24.5297C15.5872 24.7055 15.4226 24.8196 15.2173 24.8657C14.8028 24.9584 14.2483 24.768 13.6758 24.3364C13.1033 23.9047 12.5597 23.2671 12.1646 22.5638C11.7696 21.8607 11.5553 21.1496 11.5689 20.5868C11.5824 20.0239 11.8227 19.6554 12.2369 19.5622C12.289 19.5504 12.3434 19.543 12.4003 19.54ZM57.2878 25.7358L38.1833 27.2114L57.5707 39.5268L76.9301 36.9141L57.2878 25.7358ZM7.94158 27.2236C8.36399 27.2027 8.8936 27.4288 9.4276 27.8581C9.9616 28.2874 10.4619 28.8893 10.8314 29.5469C11.2266 30.2502 11.441 30.9615 11.4274 31.5245C11.4138 32.0876 11.1734 32.4561 10.759 32.5491C10.3445 32.6419 9.78998 32.4515 9.21749 32.0199C8.64499 31.5882 8.10138 30.9506 7.70623 30.2474C7.31113 29.5442 7.0968 28.8329 7.11038 28.27C7.12396 27.707 7.36435 27.3385 7.77866 27.2455C7.83081 27.2339 7.88473 27.2263 7.94158 27.2236ZM34.762 28.4275L27.6831 52.1854L47.3864 67.5097L55.4212 41.5511L34.762 28.4275ZM56.4031 30.1483C56.9319 30.1571 57.5139 30.2289 58.0988 30.3573C58.6836 30.4857 59.2535 30.667 59.7592 30.8853C60.1676 31.0616 60.525 31.2582 60.8112 31.464C61.0974 31.6697 61.3066 31.8805 61.427 32.0843C61.5474 32.2881 61.5765 32.4809 61.5128 32.6518C61.4491 32.8226 61.2937 32.9681 61.0556 33.08C60.8175 33.192 60.5014 33.2681 60.1252 33.304C59.7489 33.3399 59.32 33.335 58.8629 33.2895C58.4058 33.2439 57.9294 33.1587 57.461 33.0387C56.9925 32.9186 56.5412 32.7661 56.1328 32.5897C55.3081 32.2337 54.7081 31.8024 54.4649 31.3908C54.2217 30.9792 54.3552 30.621 54.8359 30.395C55.2014 30.2233 55.7477 30.1372 56.4031 30.1483ZM79 39.4391L58.3996 42.2192L50.42 68L70.2394 63.1047L79 39.4391ZM48.0162 41.1032C48.2569 41.1035 48.4999 41.1523 48.7385 41.2485C49.0851 41.3884 49.4169 41.6257 49.7147 41.947C50.0126 42.2683 50.2707 42.6673 50.4744 43.1212C50.6782 43.575 50.8235 44.0749 50.902 44.5922C50.9806 45.1095 50.9909 45.6341 50.9323 46.1361C50.814 47.1498 50.4225 48.0097 49.8438 48.5267C49.2652 49.0438 48.5469 49.1756 47.8468 48.8931C47.5002 48.7533 47.1684 48.5159 46.8706 48.1946C46.5727 47.8733 46.3145 47.4744 46.1108 47.0205C45.907 46.5666 45.7617 46.0668 45.6832 45.5495C45.6046 45.0322 45.5943 44.5075 45.6529 44.0055C45.7504 43.17 46.0343 42.4339 46.4611 41.9097C46.888 41.3856 47.4342 41.1023 48.0162 41.1032ZM74.2756 42.8961C74.8317 42.8812 75.2925 43.1055 75.5832 43.5325C75.9248 44.0342 76.0057 44.7777 75.8083 45.5994C75.611 46.4211 75.1514 47.2536 74.5307 47.9139C73.9101 48.5741 73.1792 49.0079 72.4989 49.12C71.8186 49.232 71.2445 49.0131 70.903 48.5114C70.5615 48.0097 70.4805 47.2663 70.6779 46.4446C70.8752 45.623 71.3347 44.7905 71.9553 44.1302C72.3079 43.7552 72.6997 43.4495 73.1015 43.2358C73.5033 43.0222 73.9046 42.9059 74.2756 42.8961ZM62.5684 44.5393C63.1244 44.5245 63.5852 44.7487 63.8759 45.1757C64.2174 45.6774 64.2984 46.4209 64.101 47.2426C63.9036 48.0642 63.444 48.8968 62.8234 49.557C62.2027 50.2172 61.4718 50.6511 60.7915 50.7631C60.1112 50.8751 59.5371 50.6562 59.1956 50.1544C58.8542 49.6526 58.7733 48.9092 58.9707 48.0875C59.1681 47.2659 59.6277 46.4334 60.2483 45.7732C60.6008 45.3982 60.9926 45.0925 61.3944 44.8789C61.7962 44.6652 62.1974 44.5491 62.5684 44.5393ZM32.916 46.5894C33.1568 46.5897 33.3999 46.6387 33.6386 46.735C33.9852 46.8749 34.3169 47.1122 34.6148 47.4336C34.9126 47.7549 35.1707 48.1539 35.3744 48.6077C35.5781 49.0616 35.7234 49.5614 35.8019 50.0787C35.8805 50.596 35.8908 51.1206 35.8322 51.6225C35.7737 52.1245 35.6474 52.594 35.4606 53.0043C35.2739 53.4145 35.0303 53.7574 34.7437 54.0134C34.4572 54.2695 34.1334 54.4336 33.7907 54.4964C33.448 54.5593 33.0932 54.5196 32.7466 54.3797C32.3999 54.2399 32.0682 54.0025 31.7704 53.6812C31.4725 53.3599 31.2143 52.9609 31.0106 52.5071C30.8069 52.0532 30.6616 51.5534 30.5831 51.0361C30.5045 50.5188 30.4942 49.9941 30.5528 49.4922C30.6502 48.6566 30.9341 47.9204 31.3608 47.3961C31.7876 46.8718 32.334 46.5886 32.916 46.5894ZM69.0925 55.9685C69.6483 55.9538 70.1089 56.178 70.3996 56.6048C70.7411 57.1065 70.8221 57.85 70.6248 58.6716C70.4275 59.4932 69.968 60.3258 69.3474 60.9861C68.7267 61.6463 67.9958 62.0801 67.3155 62.1921C66.6352 62.3041 66.0611 62.0851 65.7197 61.5833C65.3782 61.0816 65.2972 60.3381 65.4945 59.5165C65.6919 58.6949 66.1514 57.8624 66.772 57.2021C67.1246 56.8271 67.5164 56.5214 67.9182 56.3077C68.32 56.0941 68.7214 55.9783 69.0925 55.9685ZM57.1065 58.9713C57.6623 58.9566 58.123 59.181 58.4136 59.608C58.7551 60.1096 58.8361 60.8531 58.6388 61.6747C58.4415 62.4963 57.982 63.3289 57.3614 63.9892C57.0541 64.3161 56.7164 64.5908 56.3678 64.7977C56.0191 65.0046 55.6663 65.1397 55.3294 65.1951C54.9926 65.2505 54.6782 65.2253 54.4044 65.1208C54.1306 65.0163 53.9027 64.8346 53.7337 64.5861C53.3922 64.0844 53.3112 63.3409 53.5086 62.5193C53.706 61.6976 54.1656 60.8651 54.7862 60.2049C55.1387 59.8299 55.5306 59.5242 55.9324 59.3106C56.3342 59.0969 56.7354 58.9811 57.1065 58.9713Z" fill="#FBEDED"/>
</svg>
