<svg width="116" height="116" viewBox="0 0 116 116" fill="none" xmlns="http://www.w3.org/2000/svg">
<path d="M115.728 57.9892C115.728 89.8292 89.9186 115.639 58.0786 115.639C26.2426 115.639 0.432007 89.8292 0.432007 57.9892C0.432007 26.1519 26.2426 0.341213 58.0786 0.341213C89.9186 0.341213 115.728 26.1519 115.728 57.9892" fill="#429CC1"/>
<path d="M21.3253 67.0599L21.288 67.1932L21.3253 67.0599Z" fill="#83D068"/>
<path d="M55.9947 66.2773L49.884 62.2012L47.6174 62.0186L45.5574 57.9892L41.664 55.9746L37.3601 56.0666L35.3214 57.7839L33.356 53.9133L29.14 54.0292L27.4214 55.8599H23.0494L22.9587 53.8679L21.0587 52.0146L20.9667 49.8159C20.9667 49.8159 18.608 49.4039 18.7227 49.8852C18.8374 50.3652 16.9161 51.6252 16.9161 51.6252C16.4561 51.4186 14.9227 47.7106 14.9227 47.7106L16.8467 45.7186C16.8467 45.7186 22.7534 45.8572 23.3494 45.6946C23.9441 45.5346 26.784 47.2986 27.1707 47.5279C27.5614 47.7559 31.6121 43.4973 31.4521 43.1773C31.2921 42.8573 33.4214 35.8399 33.3881 35.4039C33.3561 34.9706 37.3241 31.2599 37.3241 31.2599L43.6667 31.1573L43.6214 27.1399L44.24 27.0933L49.884 29.1879L53.7867 25.0226L51.668 24.9532C52 23.6132 48.1894 18.5079 47.7427 18.9092C47.296 19.3092 43.9774 20.8653 43.9774 20.8653L35.4707 21.0039L33.2414 24.9532L31.4747 23.0519L29.176 22.9266L29.2667 18.7599L34.6361 16.8359L35.5854 16.7906L37.7027 18.7599L43.14 16.8026L47.7427 16.7213C47.3547 13.8146 43.7707 10.6213 43.7707 10.6213H39.512C39.9467 11.0906 34.0294 14.5346 34.0294 14.5346C33.7307 14.6626 32.9867 14.5346 32.9867 14.5346C32.208 11.9719 25.4881 10.4333 25.4881 10.4333L25.4094 10.4866C3.40669 25.4786 1.10669 49.1319 1.10669 49.1319L1.37603 49.3413L2.34803 49.6852L4.85337 49.9626L6.65741 51.8546C6.65741 51.8546 6.54269 51.3053 9.10936 51.8773C11.6707 52.4493 14.6947 55.8839 14.6947 55.8839L19.0894 55.9746L20.9881 57.9892H25.1094L25.1547 60.2559C25.1547 60.2559 23.1881 61.8599 22.7294 62.7052C22.3214 63.4586 21.5014 66.4106 21.3254 67.0599C21.3627 67.0186 21.4187 67.2479 21.448 68.8426C21.4934 71.3373 27.2854 76.4892 27.2854 76.4892L31.3374 76.6493L31.4974 80.9733L35.4374 88.4172C35.4374 88.4172 35.0254 93.4093 35.392 93.3399C35.392 93.3399 36.4894 96.5212 37.1321 96.6346C37.1321 96.6346 38.6641 100.347 38.5961 100.621C38.5961 100.621 39.3521 102.245 39.5574 103.068C39.7654 103.893 41.6867 105.451 41.6867 105.451L45.5574 105.289C45.5574 105.289 43.7467 103.137 43.3134 102.704C42.8774 102.268 41.6414 99.6826 41.6414 99.6826C41.6414 99.6826 41.7547 99.4972 41.5947 98.7639C41.4347 98.0319 43.496 94.0052 43.4734 93.3172C43.4507 92.6306 47.8467 91.0959 47.8467 91.0959L47.8013 84.7773L51.8987 82.7172C51.8987 82.7172 51.8067 79.0066 52.0587 78.5733C52.3094 78.1373 55.3534 77.3799 56.04 76.4892C56.728 75.5959 57.8267 70.8092 57.9654 70.5346C58.1014 70.2612 56.18 65.9319 55.9947 66.2773Z" fill="#83D068"/>
<path d="M43.7479 35.5532L45.7626 37.3372L47.732 35.5532L45.7399 33.4465H43.5653V35.0945L43.7479 35.5532" fill="#83D068"/>
<path d="M49.608 35.0945L47.548 33.4465L47.732 31.3398H51.8533L51.668 33.2185L50.112 34.8198L49.608 35.0945" fill="#83D068"/>
<path d="M76.58 21.0385V23.0532L78.7293 24.8372L80.1946 23.1905L78.8653 21.3118L76.58 21.0385" fill="#83D068"/>
<path d="M80.928 21.0385L82.76 19.2519L86.56 21.0385L84.8667 24.8372H82.8066V22.6865L80.928 21.0385Z" fill="#83D068"/>
<path d="M90.9733 10.6399V16.6412C90.9733 16.6412 91.2773 17.3292 93.3373 19.2519L97.184 20.7639L95.352 22.9386L90.9733 23.1906L88.9413 24.8372V28.9599L86.9267 27.2666L82.7146 27.3119L80.928 31.2039L82.8987 35.0505L86.56 35.4612L89.2627 32.8986C89.2627 32.8986 93.2453 31.6612 94.7093 29.4172C96.1746 27.1732 96.5866 32.3012 96.5866 32.3012L97.184 35.4612L99.2453 37.2466L103.089 35.3239L99.6093 31.2039L101.212 29.3719L105.243 32.8065L105.469 35.1412L107.853 35.4159L109.547 37.2466L111.964 37.4519C111.964 37.4519 106.673 21.4505 90.9733 10.6399" fill="#83D068"/>
<path d="M101.98 95.3573L99.1066 93.156V88.944L95.5359 81.4333L99.3813 76.7626L97.4586 72.9173L97.6413 68.064L93.9759 66.5973L89.7653 65.9586L85.46 68.5213L80.9279 68.1546L76.58 66.3226C76.58 66.3226 74.4706 61.0133 74.4706 60.7373C74.4706 60.464 74.4706 54.6013 74.4706 54.6013L76.2133 52.7693L76.58 45.6267L78.388 43.8853H82.4386L85.552 41.9627L93.0626 41.4146L98.7399 45.26C98.7399 45.26 103.777 41.688 105.516 42.1467C107.256 42.6053 108.356 43.3373 109.361 43.5213C110.369 43.704 113.932 43.66 113.932 43.66C113.932 43.66 123.191 69.9413 101.98 95.3573" fill="#83D068"/>
<path d="M63.0347 115.429C78.6067 114.104 92.4107 106.589 101.98 95.3572C101.984 95.3519 101.988 95.3479 101.991 95.3439C104.121 92.8425 106.041 90.1545 107.724 87.3132C113.601 77.5465 115.56 68.0799 115.891 60.4719C114.649 89.5732 91.8347 113.087 63.0347 115.429Z" fill="#17222A"/>
<path d="M58.2973 115.621C38.3293 115.621 20.736 105.469 10.3906 90.0452C18.4813 95.4759 28.0239 98.9106 38.3119 99.6426C38.4932 100.149 38.616 100.539 38.596 100.621C38.596 100.621 39.352 102.245 39.5573 103.068C39.7653 103.893 41.6866 105.451 41.6866 105.451L45.5573 105.289C45.5573 105.289 43.7466 103.137 43.3133 102.704C42.9293 102.32 41.9253 100.271 41.6906 99.7852C41.948 99.7879 42.204 99.7906 42.4626 99.7906C65.4653 99.7906 85.3212 86.3199 94.5706 66.8359L97.6413 68.0639L97.4586 72.9172L99.3812 76.7626L95.5359 81.4332L99.1066 88.9439V93.1559L101.98 95.3572C92.4106 106.589 78.6066 114.104 63.0346 115.429C61.4732 115.556 59.8919 115.621 58.2973 115.621V115.621ZM101.991 95.3439C104.224 92.6666 106.121 89.9772 107.724 87.3132C106.041 90.1546 104.121 92.8426 101.991 95.3439Z" fill="#235169"/>
<path d="M115.943 58.4465C116.005 49.7079 114.007 43.8719 113.935 43.6652C113.392 41.5452 112.732 39.4705 111.963 37.4519H111.964C111.964 37.4519 111.176 35.0692 109.307 31.5239C106.377 25.8652 102.539 20.7545 97.9839 16.3838C95.9213 14.3918 93.5946 12.4452 90.9773 10.6439C90.8386 10.5465 90.7 10.4518 90.56 10.3558C90.496 10.2598 90.4319 10.1638 90.3679 10.0678C105.792 20.4145 115.944 38.0065 115.944 57.9732C115.944 58.1305 115.943 58.2905 115.943 58.4465" fill="#17222A"/>
<path d="M100.071 44.376C100.099 43.6346 100.113 42.8893 100.113 42.14C100.113 40.384 100.035 38.6454 99.88 36.9294L103.089 35.324L99.6093 31.204L101.212 29.372L105.243 32.8066L105.469 35.1413L107.853 35.416L109.547 37.2467L111.963 37.452C112.732 39.4707 113.392 41.5454 113.935 43.6654C113.933 43.6614 113.932 43.66 113.932 43.66C113.932 43.66 113.555 43.6654 113.009 43.6654C111.883 43.6654 110.041 43.644 109.361 43.5214C108.356 43.3374 107.256 42.6053 105.516 42.1467C105.411 42.1187 105.293 42.1066 105.167 42.1066C103.879 42.1066 101.544 43.4426 100.071 44.376V44.376ZM109.307 31.524C107.14 27.4107 103.517 21.732 97.984 16.384C102.539 20.7547 106.377 25.8654 109.307 31.524ZM96.3854 21.712C96.1947 21.2106 95.9974 20.712 95.7947 20.2173L97.184 20.764L96.3854 21.712ZM90.9733 10.988C90.836 10.776 90.6987 10.5653 90.5601 10.356C90.7001 10.452 90.8387 10.5467 90.9774 10.644C90.976 10.6427 90.9747 10.6413 90.9733 10.64V10.988Z" fill="#235169"/>
<path d="M111.964 37.4519H111.963L109.547 37.2466L107.853 35.4159L105.469 35.1412L105.243 32.8065L101.212 29.3719L99.6093 31.2039L103.089 35.3239L99.88 36.9292C99.404 31.6159 98.2053 26.5105 96.3853 21.7119L97.1839 20.7639L95.7946 20.2172C94.4613 16.9825 92.8439 13.8959 90.9733 10.9879V10.6399C90.9746 10.6412 90.976 10.6426 90.9773 10.6439C93.5946 12.4452 95.9213 14.3919 97.9839 16.3839C103.517 21.7319 107.14 27.4106 109.307 31.5239C111.176 35.0692 111.964 37.4519 111.964 37.4519" fill="#376A49"/>
<path d="M101.98 95.3573L99.1066 93.156V88.944L95.5359 81.4333L99.3812 76.7626L97.4586 72.9173L97.6413 68.064L94.5706 66.836C97.8239 59.984 99.7652 52.3893 100.071 44.376C101.544 43.4426 103.879 42.1066 105.167 42.1066C105.293 42.1066 105.411 42.1187 105.516 42.1467C107.256 42.6053 108.356 43.3373 109.361 43.5213C110.041 43.644 111.883 43.6653 113.009 43.6653C113.555 43.6653 113.932 43.66 113.932 43.66C113.932 43.66 113.933 43.6613 113.935 43.6653C114.007 43.872 116.005 49.708 115.943 58.4467C115.936 59.1267 115.92 59.7986 115.891 60.472C115.56 68.08 113.601 77.5467 107.724 87.3133C106.121 89.9773 104.224 92.6667 101.991 95.344C101.988 95.348 101.984 95.352 101.98 95.3573" fill="#376A49"/>
<path d="M41.6867 105.451C41.6867 105.451 39.7654 103.893 39.5574 103.068C39.3521 102.245 38.5961 100.621 38.5961 100.621C38.6161 100.539 38.4933 100.149 38.312 99.6426C39.4293 99.7226 40.5561 99.7706 41.6907 99.7852C41.9254 100.271 42.9294 102.32 43.3134 102.704C43.7467 103.137 45.5574 105.289 45.5574 105.289L41.6867 105.451Z" fill="#376A49"/>
</svg>
