<svg width="1833" height="1704" viewBox="0 0 1833 1704" fill="none" xmlns="http://www.w3.org/2000/svg">
<path d="M1589.17 65.239C1599.84 53.812 1616.9 49.492 1631.92 53.226C1646.3 56.536 1658.85 67.359 1663.62 81.402C1668.32 94.435 1665.18 109.406 1657.2 120.482C1650.89 129.384 1641.36 135.4 1635.21 144.437C1625.82 157.812 1619.55 173.064 1613.96 188.333C1601.16 224.328 1592.81 261.721 1585.54 299.169C1587.01 298.114 1588.43 296.986 1589.85 295.832C1616.14 274.204 1642.03 251.801 1664.31 225.97C1672.97 215.607 1681.4 204.721 1686.53 192.121C1689.66 184.04 1690 175.129 1693.68 167.228C1698.13 157.469 1706.73 149.524 1717.05 146.367C1731.96 141.857 1748.78 145.979 1760.65 155.882C1771.95 164.991 1779.03 180.107 1776.17 194.673C1774.66 203.268 1769.3 210.808 1762.29 215.841C1754.6 221.776 1744.85 223.823 1735.51 225.464C1721.75 227.782 1709.48 234.934 1698 242.492C1681.99 253.279 1667.31 265.888 1653.11 278.938C1628.74 301.756 1605.81 326.063 1584.03 351.352C1582.42 353.318 1580.25 355.077 1579.72 357.683C1562.78 431.504 1541.19 504.613 1509.73 573.654C1495.13 605.446 1478.45 636.346 1458.67 665.234C1441.75 689.901 1422.63 713.171 1400.69 733.554C1377 755.624 1349.95 774.32 1320.21 787.263C1281.68 804.21 1238.96 811.1 1197.04 808.368C1192.58 832.981 1184.25 856.846 1172.78 879.06C1156.57 910.663 1133.99 938.766 1107.79 962.649C1056.07 1009.52 990.623 1039.83 922.529 1053.78C922.52 1218.74 922.583 1383.7 922.502 1548.66C939.214 1533.13 957.604 1519.43 977.194 1507.77C1006.56 1490.4 1038.81 1477.39 1072.6 1472.01C1096.35 1468.2 1120.75 1468.54 1144.36 1473.14C1162.62 1476.77 1180.41 1483.26 1196.25 1493.12C1218.03 1506.52 1236.01 1526.55 1245.48 1550.44C1253.5 1570.49 1255.26 1593.24 1249.12 1614.04C1244.98 1628.3 1237.12 1641.46 1226.58 1651.91H861.486C861.459 1455.24 861.513 1258.55 861.45 1061.87C838.289 1063.67 815.011 1063.03 791.859 1061.34C791.922 1258.2 791.886 1455.06 791.868 1651.92H426.873C408.853 1634.2 399.257 1608.5 400.826 1583.33C402.125 1552.25 418.783 1523.04 442.639 1503.56C468.001 1482.56 500.74 1472.1 533.281 1469.96C573.164 1466.86 613.19 1476.58 649.185 1493.43C679.101 1507.39 706.637 1526.24 730.97 1548.51C731.015 1382.98 730.952 1217.44 730.997 1051.9C673.103 1038.68 617.492 1013.71 570.98 976.548C537.032 949.391 508.009 915.624 488.446 876.679C475.341 850.695 466.647 822.483 463.156 793.586C458.43 795.101 453.668 796.526 448.996 798.204C421.163 808.008 395.558 823.99 374.435 844.571C353.862 864.413 337.376 888.178 324.262 913.486C311.635 937.829 301.94 963.605 294.282 989.914C281.267 1034.6 273.89 1080.74 269.254 1126.99C264.808 1173.16 263.175 1219.55 263.301 1265.92C263.112 1268 264.239 1269.81 265.069 1271.64C271.743 1286.14 278.679 1300.5 286.102 1314.63C300.551 1342.05 315.982 1369.19 335.364 1393.47C345.141 1405.32 355.919 1417.25 370.259 1423.53C376.933 1426.74 383.869 1429.94 389.073 1435.37C395.314 1441.51 399.616 1450.01 399.337 1458.93C399.256 1472 390.904 1483.78 380.198 1490.7C365.948 1499.99 346.602 1502.04 331.333 1494.04C321.168 1488.86 314.206 1478.25 313.015 1466.97C311.879 1457.97 314.783 1449 313.457 1440.03C311.816 1428 307.504 1416.54 302.634 1405.5C295.464 1389.5 286.787 1374.23 277.597 1359.33C269.326 1346.23 261.074 1333.05 251.712 1320.73C248.086 1359.99 245.714 1399.52 248.167 1438.93C249.754 1456.74 251.549 1475.08 259.152 1491.5C264.32 1501.2 271.183 1510.41 272.816 1521.56C273.637 1528.69 273.745 1536.15 271.202 1542.97C265.502 1559.94 247.969 1571.65 230.219 1571.43C214.688 1572.09 199.004 1563.82 191.148 1550.33C183.437 1537.57 184.176 1520.92 190.932 1507.93C194.783 1500.2 200.573 1493.59 203.92 1485.6C207.51 1477.33 209.755 1468.56 211.541 1459.75C215.807 1437.78 217.16 1415.38 217.8 1393.07C218.305 1369.27 217.773 1345.46 216.736 1321.68C211.884 1327.19 207.753 1333.3 203.316 1339.15C191.005 1355.91 179.181 1373.05 168.52 1390.92C160.087 1405.22 152.132 1419.95 146.883 1435.76C144.836 1442.37 143.041 1449.19 143.194 1456.17C143.32 1464.12 143.988 1472.34 141.345 1479.99C138.242 1489.33 131.677 1497.59 122.856 1502.1C105.512 1511.15 82.91 1507.44 68.714 1494.21C59.56 1485.91 54.058 1473.06 56.358 1460.68C58.405 1449.54 66.333 1440.08 75.975 1434.49C82.884 1430.3 90.757 1427.98 97.513 1423.53C108.435 1416.4 117.535 1406.89 126.022 1397.08C139.064 1381.83 150.5 1365.32 161.368 1348.48C178.423 1321.68 194.107 1293.99 208.258 1265.57C208.934 1248.91 208.096 1232.12 208.754 1215.43C209.881 1144.7 216.285 1073.72 232.799 1004.8C245.841 951.357 265.286 898.766 296.194 852.931C316.018 823.511 340.848 797.238 370.241 777.243C398.155 758.05 429.984 744.91 462.975 737.487C468.242 688.612 489.031 642.038 519.66 603.806C506.276 561.137 491.674 518.828 475.259 477.223C462.199 444.718 448.301 412.367 430.091 382.36C422.091 369.733 413.541 356.989 401.654 347.673C383.156 333.964 359.995 328.976 340.703 316.656C332 311.046 324.414 303.407 319.779 294.063C308.036 269.594 308.496 239.786 320.681 215.561C329.953 196.576 346.196 181.144 365.605 172.81C384.175 164.666 405.524 163.096 425.095 168.373C447.228 174.199 466.935 188.756 478.84 208.328C483.611 216.31 487.733 224.923 488.977 234.231C490.781 246.154 488.075 258.222 484.071 269.433C478.154 286.136 469.658 302.055 466.511 319.642C464.491 330.799 466.132 342.145 467.819 353.22C471.255 372.205 476.838 390.721 483.106 408.949C495.958 445.891 511.778 481.715 528.22 517.187C527.706 500.547 531.512 483.789 539.277 469.061C551.381 445.62 573.36 427.51 598.74 420.241C618.23 414.586 639.515 415.091 658.69 421.765C672.67 426.671 685.549 434.752 695.948 445.332C705.562 408.218 730.879 375.569 764.367 356.936C797.332 338.212 837.882 333.793 874.229 344.336C899.492 351.596 922.598 366.072 940.231 385.544C956.998 403.916 968.876 426.743 974.116 451.059C988.97 433.418 1010.22 421.242 1033.03 417.634C1053.3 414.369 1074.66 417.336 1093.02 426.689C1119.12 439.577 1138.8 464.714 1144.88 493.205C1146.06 492.141 1146.58 490.608 1147.22 489.21C1161.23 457.661 1174.51 425.716 1184.88 392.76C1190.76 373.414 1196.14 353.644 1196.98 333.333C1197.6 321.473 1194.3 309.865 1190.19 298.862C1184.3 282.79 1176.04 267.34 1173.66 250.186C1171.93 238.858 1174.03 227.106 1179.18 216.897C1192.17 188.911 1220.47 168.852 1251.17 165.849C1268.31 163.964 1285.97 167.094 1301.37 174.832C1317.28 182.679 1330.71 195.368 1339.44 210.791C1349.52 228.171 1353.31 248.933 1350.54 268.775C1348.35 281.898 1344.22 295.327 1335.2 305.429C1325.85 316.044 1312.82 322.304 1300.07 327.823C1285.56 334.199 1270.28 339.773 1258.01 350.109C1245.28 361.554 1236.08 376.246 1227.49 390.893C1210.13 421.495 1196.49 454.036 1183.66 486.739C1168.76 525.323 1155.39 564.475 1142.93 603.906C1176.92 646.485 1198.78 699.445 1200.72 754.173C1211.24 754.759 1221.78 754.606 1232.28 753.65C1265.95 750.989 1298.79 739.634 1327.16 721.335C1355.7 703.107 1379.8 678.657 1400.21 651.789C1422 623.009 1439.83 591.406 1455.18 558.793C1471.39 524.259 1484.83 488.489 1496.59 452.214C1508.44 415.434 1518.64 378.104 1527.43 340.476C1526.64 334.469 1525.07 328.58 1524 322.618C1515.76 284.575 1506.24 246.569 1491.19 210.574C1485.22 196.883 1478.55 183.183 1468.67 171.837C1462.77 165.055 1454.75 160.536 1448.86 153.745C1443.37 147.54 1439.76 139.567 1439.29 131.251C1438.94 122.088 1443.04 113.132 1449.55 106.8C1461.29 94.958 1479.49 91.143 1495.46 94.823C1508.8 97.908 1521.55 107.441 1524.99 121.195C1527.76 130.385 1525.68 140.09 1522.41 148.848C1518.88 157.885 1518.37 167.761 1519.07 177.339C1520.43 196.703 1525.36 215.598 1530.78 234.177C1536.63 253.739 1543.64 272.941 1551.06 291.971C1560.26 265.906 1568.32 239.435 1575.07 212.639C1579.86 192.914 1584.03 172.946 1585.51 152.671C1586.31 142.272 1586.18 131.657 1583.56 121.51C1581.19 113.194 1577.95 104.924 1577.95 96.157C1577.57 84.946 1581.29 73.393 1589.17 65.239ZM821.405 391.595C799.669 394.598 779.304 405.908 765.081 422.612C753.004 436.691 745.41 454.558 743.688 473.038C741.902 491.022 745.663 509.529 754.34 525.385C761.745 538.995 772.685 550.648 785.808 558.9C810.196 574.539 842.24 577.2 868.964 566.088C895.39 555.409 916.071 531.59 922.736 503.856C929.798 476.068 922.817 445.106 904.175 423.27C884.494 399.343 852.034 386.942 821.405 391.595ZM617.258 452.61C601.195 454.937 586.196 463.758 576.465 476.754C568.059 487.757 563.541 501.629 563.838 515.464C563.937 530.03 569.493 544.442 579.053 555.41C589.497 567.577 604.803 575.468 620.811 576.758C634.827 578.057 649.248 574.386 660.937 566.539C672.653 558.792 681.582 546.958 685.83 533.583C690.664 518.467 689.537 501.484 682.565 487.207C676.892 475.473 667.422 465.642 655.977 459.455C644.243 453.079 630.452 450.716 617.258 452.61ZM1039.5 452.691C1023.08 455.198 1007.86 464.515 998.252 478.062C988.277 491.789 984.345 509.737 987.691 526.377C989.666 536.929 994.518 546.923 1001.51 555.076C1012 567.468 1027.5 575.504 1043.7 576.767C1061.4 578.408 1079.67 571.951 1092.38 559.522C1104.51 547.978 1111.68 531.355 1111.55 514.589C1111.7 498.021 1104.83 481.534 1092.92 470.008C1079.21 456.154 1058.71 449.642 1039.5 452.691ZM585.943 592.64C577.763 594.823 572.108 603.67 573.668 612.004C574.561 618.408 579.422 623.999 585.609 625.83C592.076 627.913 599.688 625.785 604.017 620.509C608.094 615.837 609.176 608.938 607.029 603.174C604.117 594.886 594.313 590.007 585.943 592.64ZM1112.51 594.201C1105.55 596.402 1101.22 604.302 1102.98 611.364C1104.5 619.319 1113.36 624.73 1121.14 622.466C1129.08 620.644 1134.08 611.535 1131.52 603.823C1129.42 595.905 1120.12 591.405 1112.51 594.201ZM1032.37 604.32C1025.2 606.521 1020.61 614.773 1022.72 622.016C1024.43 629.177 1031.96 634.237 1039.23 632.956C1048.28 631.919 1054.48 621.403 1050.83 613.015C1048.25 605.754 1039.59 601.84 1032.37 604.32ZM651.729 623.233C643.549 625.497 638.074 634.66 640.221 642.922C641.673 650.155 648.519 655.946 655.932 655.937C662.841 656.343 669.623 651.743 672.031 645.312C674.304 639.54 673.023 632.532 668.766 628.004C664.608 623.332 657.708 621.438 651.729 623.233ZM525.542 634.083C517.181 634.263 509.867 641.605 509.704 649.957C509.1 658.083 515.35 665.939 523.395 667.165C529.916 668.446 536.879 665.316 540.414 659.724C544.004 654.24 543.868 646.619 540.107 641.244C536.951 636.518 531.188 633.785 525.542 634.083ZM1079.26 655.711C1071.22 657.001 1065.38 665.434 1066.94 673.406C1068.06 681.451 1076.35 687.53 1084.38 686.141C1092.84 685.14 1099.17 676.238 1097.26 667.913C1095.93 659.787 1087.3 653.988 1079.26 655.711ZM991.776 657.488C984.894 659.111 982.982 669.258 988.728 673.308C993.644 677.556 1002.17 674.408 1003.17 668.005C1004.83 661.627 997.954 655.377 991.776 657.488ZM1150.46 657.433C1144.89 658.542 1140.61 663.999 1141.01 669.69C1140.81 676.373 1147.21 682.163 1153.82 681.595C1160.32 681.442 1165.87 675.318 1165.31 668.824C1165.33 661.465 1157.53 655.576 1150.46 657.433ZM581.488 664.766C576.392 666.38 572.271 670.656 570.882 675.823C568.032 684.95 575.148 695.412 584.699 696.062C594.368 697.388 603.576 688.297 602.404 678.619C601.718 668.78 590.85 661.456 581.488 664.766ZM508.289 692.662C503.96 694.448 501.236 699.345 502.039 703.972C502.761 709.356 508.181 713.361 513.538 712.684C519.969 712.224 524.55 704.855 522.187 698.858C520.419 693.302 513.61 690.29 508.289 692.662ZM1123.38 703.431C1118.99 704.54 1115.49 708.256 1114.59 712.694C1112.7 719.963 1119.15 728.026 1126.75 727.395C1133.74 727.738 1139.61 720.784 1138.69 713.966C1138.16 706.723 1130.34 701.366 1123.38 703.431ZM624.788 709.88C619.44 711.792 616.202 717.961 617.636 723.463C618.826 729.217 624.887 733.348 630.687 732.23C637.406 731.445 642.186 723.86 639.995 717.457C638.299 711.169 630.831 707.499 624.788 709.88ZM1027.9 709.862C1020.71 711.485 1015.69 719.368 1017.46 726.556C1018.74 733.185 1025.25 738.29 1032.04 737.704C1039.92 737.641 1046.42 729.821 1045.29 722.065C1044.74 713.767 1035.86 707.715 1027.9 709.862ZM565.28 733.401C559.219 734.546 554.286 740.138 554.331 746.379C553.916 753.621 560.383 760.296 567.625 760.223C574.994 760.457 581.794 753.81 581.28 746.361C581.47 738.272 573.109 731.652 565.28 733.401ZM1081.11 745.063C1077.06 746.091 1073.74 749.536 1072.94 753.649C1071.47 759.827 1076.14 766.555 1082.49 767.16C1089.18 768.269 1095.99 762.209 1095.19 755.363C1095.26 748.391 1087.67 743.16 1081.11 745.063ZM613.767 770.957C610.773 772.68 608.671 775.548 606.227 777.929C598.669 785.938 589.641 792.567 579.666 797.239C566.291 803.579 551.247 807.539 536.401 805.41C531.413 804.788 526.624 803.11 521.655 802.47C520.41 802.335 519.698 803.57 518.823 804.202C519.698 806.971 522.034 808.865 524.505 810.2C530.773 813.591 537.971 814.899 545.041 814.971C559.959 815.368 574.227 809.812 587.431 803.408C602.123 826.515 622.407 845.32 643.07 863.006C657.762 875.768 672.896 888.07 688.959 899.082C715.448 917.283 744.544 932.245 775.831 940.137C795.736 945.332 816.417 947.262 836.944 946.252C876.556 945.125 915.446 934.464 951.414 918.158C981.673 904.395 1010.22 886.835 1036.1 865.973C1048.72 855.547 1061.18 844.76 1071.64 832.088C1080.5 821.373 1088.56 809.639 1092.99 796.336C1103.55 800.719 1115.29 802.28 1126.63 800.836C1134.77 799.411 1143.1 796.354 1148.89 790.212C1149.9 788.958 1151.49 787.335 1150.71 785.612C1148.62 783.727 1145.64 785.053 1143.38 785.81C1136.26 788.741 1129.04 791.826 1121.3 792.529C1114.69 793.269 1108.14 791.762 1101.76 790.22C1093.26 787.893 1084.66 783.997 1079.26 776.745C1077.81 775.131 1076.18 772.028 1073.58 773.435C1071.59 774.698 1072.68 777.376 1073.32 779.144C1076.52 786.215 1082.97 791.112 1089.57 794.846C1075.81 814.174 1059.47 831.68 1040.62 846.129C1016.43 865.475 987.938 878.706 958.717 888.537C919.574 901.506 878.438 908.118 837.257 909.146C767.801 912.934 698.327 888.682 643.409 846.653C625.236 832.673 608.045 817.368 592.415 800.583C598.945 796.66 604.952 791.807 609.948 786.044C612.96 782.337 616.18 778.297 616.794 773.408C617.267 771.57 615.418 770.028 613.767 770.957Z" fill="#8BC53F" stroke="#8BC53F" stroke-width="0.5"/>
<path d="M821.405 391.595C852.034 386.941 884.494 399.342 904.173 423.27C922.815 445.105 929.796 476.068 922.734 503.856C916.069 531.59 895.388 555.409 868.962 566.088C842.238 577.2 810.194 574.539 785.806 558.9C772.683 550.648 761.743 538.995 754.338 525.385C745.662 509.529 741.901 491.022 743.686 473.038C745.409 454.558 753.003 436.691 765.079 422.612C779.304 405.909 799.669 394.599 821.405 391.595ZM839.56 455.784C822.983 455.982 806.938 464.83 797.702 478.566C788.647 491.761 786.293 509.24 791.452 524.383C795.907 537.966 806.306 549.465 819.366 555.282C828.584 559.593 839.055 560.612 849.066 559.25C864.236 557.013 878.026 547.462 885.765 534.267C891.799 524.111 894.153 511.837 892.358 500.175C890.536 486.719 882.996 474.191 872.11 466.11C862.848 459.094 851.168 455.442 839.56 455.784Z" fill="white" stroke="white" stroke-width="0.5"/>
<path d="M617.258 452.61C630.453 450.716 644.243 453.079 655.977 459.456C667.422 465.643 676.892 475.474 682.565 487.208C689.537 501.485 690.664 518.468 685.83 533.584C681.582 546.959 672.653 558.792 660.937 566.54C649.248 574.387 634.827 578.057 620.811 576.759C604.802 575.469 589.497 567.578 579.053 555.411C569.493 544.444 563.937 530.031 563.838 515.465C563.54 501.63 568.059 487.758 576.465 476.755C586.196 463.757 601.195 454.937 617.258 452.61ZM623.959 497.245C608.69 499.888 596.27 513.606 595.161 529.064C593.925 541.077 599.364 553.479 609.014 560.721C617.916 567.702 630.209 569.749 640.996 566.574C654.804 562.696 665.357 549.69 666.412 535.395C667.557 523.355 662.02 510.989 652.315 503.783C644.351 497.705 633.772 495.315 623.959 497.245Z" fill="white" stroke="white" stroke-width="0.5"/>
<path d="M1039.5 452.691C1058.71 449.643 1079.21 456.154 1092.92 470.008C1104.83 481.534 1111.7 498.021 1111.55 514.589C1111.68 531.356 1104.51 547.978 1092.38 559.522C1079.67 571.95 1061.4 578.408 1043.7 576.767C1027.5 575.504 1012 567.468 1001.51 555.076C994.518 546.923 989.666 536.93 987.691 526.377C984.345 509.737 988.277 491.789 998.252 478.062C1007.86 464.515 1023.08 455.198 1039.5 452.691ZM1046.12 497.362C1036.14 499.364 1027.22 505.957 1022.31 514.859C1016.31 525.447 1016.29 539.147 1022.27 549.736C1026.49 557.348 1033.58 563.31 1041.81 566.124C1049.41 568.658 1057.84 568.676 1065.42 566.061C1075.19 562.679 1083.27 554.796 1086.92 545.119C1089.13 539.455 1089.58 533.223 1088.86 527.216C1087.54 516.745 1081.06 507.185 1072.06 501.746C1064.4 497.038 1054.91 495.496 1046.12 497.362Z" fill="white" stroke="white" stroke-width="0.5"/>
<path d="M839.56 455.784C851.168 455.441 862.847 459.094 872.11 466.111C882.996 474.192 890.536 486.72 892.358 500.176C894.153 511.838 891.799 524.113 885.765 534.268C878.027 547.463 864.236 557.014 849.066 559.251C839.055 560.613 828.584 559.594 819.366 555.283C806.306 549.466 795.907 537.966 791.452 524.384C786.293 509.241 788.647 491.762 797.702 478.567C806.938 464.831 822.983 455.983 839.56 455.784ZM813.234 477.133C809.193 479.92 806.903 484.529 805.045 488.939C803.133 494.152 801.528 499.969 803.16 505.471C803.891 507.518 806.362 508.474 808.229 507.203C812.333 504.624 814.678 500.078 816.563 495.758C818.529 490.509 820.198 484.656 818.764 479.073C818.239 476.555 815.218 475.59 813.234 477.133Z" fill="#231F20" stroke="#231F20" stroke-width="0.5"/>
<path d="M813.234 477.133C815.218 475.591 818.24 476.556 818.763 479.072C820.197 484.655 818.529 490.508 816.562 495.757C814.677 500.077 812.332 504.623 808.228 507.202C806.361 508.474 803.89 507.518 803.159 505.47C801.527 499.968 803.132 494.151 805.044 488.938C806.902 484.528 809.193 479.92 813.234 477.133Z" fill="white" stroke="white" stroke-width="0.5"/>
<path d="M623.959 497.245C633.772 495.315 644.351 497.705 652.315 503.784C662.02 510.99 667.557 523.355 666.412 535.396C665.357 549.691 654.804 562.697 640.996 566.575C630.209 569.75 617.916 567.702 609.014 560.722C599.364 553.48 593.925 541.078 595.161 529.065C596.27 513.606 608.689 499.888 623.959 497.245ZM611.954 511.126C607.345 514.652 605.163 520.65 604.522 526.251C604.369 528.407 604.242 532.131 607.129 532.447C609.708 531.743 611.278 529.353 612.604 527.207C614.976 522.851 616.609 517.764 615.698 512.785C615.463 511.017 613.406 510.188 611.954 511.126Z" fill="#231F20" stroke="#231F20" stroke-width="0.5"/>
<path d="M1046.12 497.362C1054.91 495.495 1064.4 497.037 1072.06 501.745C1081.06 507.183 1087.54 516.744 1088.86 527.215C1089.58 533.222 1089.13 539.454 1086.92 545.118C1083.27 554.795 1075.19 562.678 1065.42 566.06C1057.84 568.676 1049.41 568.657 1041.81 566.123C1033.58 563.309 1026.49 557.347 1022.27 549.735C1016.29 539.147 1016.31 525.447 1022.31 514.858C1027.22 505.958 1036.14 499.365 1046.12 497.362ZM1034.25 511.459C1030.76 514.282 1029.01 518.629 1027.8 522.832C1027.18 525.601 1026.59 528.749 1027.97 531.391C1029.44 533.556 1032 531.662 1033.23 530.209C1037.1 525.456 1039.42 518.998 1038.46 512.856C1038.26 510.81 1035.64 510.079 1034.25 511.459Z" fill="#231F20" stroke="#231F20" stroke-width="0.5"/>
<path d="M611.954 511.126C613.406 510.188 615.462 511.018 615.697 512.785C616.608 517.764 614.976 522.85 612.603 527.207C611.277 529.354 609.708 531.744 607.128 532.447C604.242 532.131 604.368 528.406 604.521 526.251C605.163 520.65 607.346 514.652 611.954 511.126Z" fill="white" stroke="white" stroke-width="0.5"/>
<path d="M1034.25 511.459C1035.64 510.079 1038.26 510.81 1038.46 512.857C1039.42 518.999 1037.11 525.457 1033.23 530.21C1032 531.662 1029.44 533.556 1027.97 531.392C1026.59 528.749 1027.18 525.602 1027.8 522.833C1029.01 518.63 1030.76 514.282 1034.25 511.459Z" fill="white" stroke="white" stroke-width="0.5"/>
<path d="M585.943 592.64C594.313 590.006 604.117 594.886 607.03 603.174C609.177 608.937 608.094 615.837 604.018 620.509C599.689 625.785 592.077 627.914 585.61 625.83C579.423 623.999 574.562 618.407 573.669 612.004C572.108 603.671 577.763 594.823 585.943 592.64Z" fill="#D6DE23" stroke="#D6DE23" stroke-width="0.5"/>
<path d="M1112.51 594.201C1120.12 591.405 1129.42 595.906 1131.52 603.824C1134.08 611.535 1129.08 620.645 1121.14 622.467C1113.36 624.731 1104.5 619.319 1102.98 611.365C1101.22 604.302 1105.55 596.401 1112.51 594.201Z" fill="#D6DE23" stroke="#D6DE23" stroke-width="0.5"/>
<path d="M1032.37 604.32C1039.59 601.84 1048.25 605.754 1050.83 613.014C1054.48 621.402 1048.28 631.918 1039.23 632.955C1031.96 634.236 1024.42 629.176 1022.72 622.015C1020.61 614.773 1025.2 606.521 1032.37 604.32Z" fill="#D6DE23" stroke="#D6DE23" stroke-width="0.5"/>
<path d="M651.729 623.233C657.709 621.438 664.608 623.332 668.766 628.004C673.023 632.532 674.304 639.539 672.031 645.312C669.623 651.743 662.841 656.342 655.932 655.937C648.518 655.946 641.673 650.156 640.221 642.922C638.074 634.66 643.548 625.497 651.729 623.233Z" fill="#D6DE23" stroke="#D6DE23" stroke-width="0.5"/>
<path d="M525.542 634.083C531.188 633.785 536.951 636.518 540.108 641.244C543.869 646.619 544.004 654.241 540.415 659.724C536.879 665.316 529.917 668.445 523.396 667.165C515.351 665.938 509.101 658.083 509.705 649.957C509.867 641.605 517.182 634.263 525.542 634.083Z" fill="#D6DE23" stroke="#D6DE23" stroke-width="0.5"/>
<path d="M1079.26 655.711C1087.3 653.988 1095.93 659.788 1097.26 667.914C1099.17 676.239 1092.84 685.141 1084.38 686.142C1076.35 687.531 1068.06 681.452 1066.94 673.407C1065.38 665.433 1071.23 657.001 1079.26 655.711Z" fill="#D6DE23" stroke="#D6DE23" stroke-width="0.5"/>
<path d="M991.776 657.488C997.954 655.378 1004.84 661.628 1003.17 668.004C1002.17 674.408 993.643 677.555 988.727 673.307C982.982 669.258 984.894 659.111 991.776 657.488Z" fill="#D6DE23" stroke="#D6DE23" stroke-width="0.5"/>
<path d="M1150.46 657.433C1157.53 655.575 1165.33 661.465 1165.31 668.824C1165.87 675.318 1160.32 681.442 1153.82 681.595C1147.21 682.163 1140.81 676.373 1141.01 669.69C1140.61 663.999 1144.89 658.543 1150.46 657.433Z" fill="#D6DE23" stroke="#D6DE23" stroke-width="0.5"/>
<path d="M581.488 664.766C590.85 661.456 601.718 668.78 602.403 678.619C603.575 688.297 594.367 697.388 584.698 696.062C575.147 695.413 568.031 684.95 570.881 675.823C572.27 670.656 576.392 666.38 581.488 664.766Z" fill="#D6DE23" stroke="#D6DE23" stroke-width="0.5"/>
<path d="M508.289 692.662C513.61 690.29 520.42 693.302 522.187 698.858C524.55 704.856 519.968 712.224 513.538 712.684C508.181 713.36 502.76 709.356 502.039 703.972C501.236 699.345 503.96 694.448 508.289 692.662Z" fill="#D6DE23" stroke="#D6DE23" stroke-width="0.5"/>
<path d="M1123.38 703.431C1130.34 701.366 1138.15 706.723 1138.69 713.965C1139.61 720.783 1133.74 727.737 1126.75 727.394C1119.15 728.025 1112.7 719.962 1114.59 712.693C1115.49 708.256 1118.99 704.54 1123.38 703.431Z" fill="#D6DE23" stroke="#D6DE23" stroke-width="0.5"/>
<path d="M624.788 709.88C630.831 707.499 638.299 711.17 639.994 717.456C642.186 723.86 637.406 731.445 630.686 732.229C624.887 733.347 618.826 729.217 617.635 723.462C616.202 717.961 619.44 711.792 624.788 709.88Z" fill="#D6DE23" stroke="#D6DE23" stroke-width="0.5"/>
<path d="M1027.9 709.862C1035.86 707.715 1044.74 713.767 1045.29 722.065C1046.42 729.821 1039.92 737.641 1032.04 737.704C1025.25 738.29 1018.74 733.185 1017.46 726.556C1015.69 719.368 1020.71 711.485 1027.9 709.862Z" fill="#D6DE23" stroke="#D6DE23" stroke-width="0.5"/>
<path d="M565.28 733.401C573.109 731.651 581.469 738.271 581.28 746.361C581.794 753.811 574.994 760.458 567.625 760.223C560.383 760.295 553.916 753.621 554.331 746.379C554.286 740.139 559.22 734.547 565.28 733.401Z" fill="#D6DE23" stroke="#D6DE23" stroke-width="0.5"/>
<path d="M1081.11 745.063C1087.67 743.16 1095.26 748.391 1095.19 755.363C1095.99 762.209 1089.18 768.269 1082.49 767.16C1076.14 766.556 1071.47 759.827 1072.94 753.649C1073.74 749.537 1077.06 746.091 1081.11 745.063Z" fill="#D6DE23" stroke="#D6DE23" stroke-width="0.5"/>
<path d="M613.767 770.957C615.418 770.028 617.266 771.57 616.797 773.41C616.184 778.298 612.964 782.339 609.951 786.046C604.954 791.809 598.948 796.661 592.418 800.585C608.048 817.37 625.239 832.675 643.412 846.655C698.329 888.684 767.803 912.936 837.26 909.148C878.441 908.12 919.577 901.509 958.72 888.539C987.942 878.708 1016.43 865.477 1040.62 846.131C1059.47 831.682 1075.81 814.176 1089.57 794.848C1082.98 791.114 1076.52 786.217 1073.33 779.146C1072.69 777.378 1071.59 774.7 1073.59 773.437C1076.19 772.03 1077.82 775.133 1079.26 776.747C1084.66 783.998 1093.26 787.895 1101.76 790.222C1108.14 791.764 1114.7 793.27 1121.3 792.531C1129.05 791.827 1136.26 788.743 1143.38 785.812C1145.64 785.054 1148.62 783.729 1150.71 785.614C1151.5 787.337 1149.9 788.96 1148.89 790.214C1143.11 796.356 1134.77 799.413 1126.63 800.838C1115.29 802.281 1103.55 800.721 1092.99 796.338C1088.56 809.641 1080.51 821.375 1071.64 832.09C1061.19 844.762 1048.72 855.549 1036.11 865.975C1010.22 886.836 981.676 904.396 951.417 918.16C915.449 934.467 876.558 945.127 836.947 946.254C816.419 947.264 795.739 945.334 775.834 940.139C744.547 932.247 715.451 917.285 688.962 899.084C672.899 888.072 657.765 875.77 643.073 863.008C622.41 845.322 602.126 826.517 587.434 803.41C574.23 809.814 559.962 815.369 545.044 814.973C537.973 814.901 530.776 813.593 524.508 810.202C522.037 808.867 519.701 806.973 518.826 804.204C519.701 803.573 520.413 802.337 521.658 802.472C526.627 803.112 531.417 804.79 536.404 805.412C551.249 807.54 566.293 803.581 579.669 797.241C589.644 792.569 598.672 785.94 606.23 777.931C608.671 775.548 610.773 772.68 613.767 770.957Z" fill="#231F20" stroke="#231F20" stroke-width="0.5"/>
<path d="M1155.5 767L1163.73 779.75H1147.27L1155.5 767Z" fill="#C4C4C4"/>
<g clip-path="url(#clip0)">
<path d="M1120.3 948.312C1101.95 953.27 1088.22 972.225 1085.32 996.72C1084.66 1002.55 1084 1022.38 1084 1040.61C1084 1066.71 1083.6 1073.85 1082.28 1073.85C1081.36 1073.85 1059.84 1069.19 1034.5 1063.65C1009.16 1057.96 987.64 1053.44 986.716 1053.44C985.66 1053.44 985 1055.33 985 1058.1C985 1062.33 991.204 1070.79 1034.5 1125.32L1084 1187.73V1263.11C1084 1304.52 1084.66 1343.45 1085.32 1349.28C1087.7 1369.69 1097.86 1386.75 1112.38 1394.63L1118.98 1398.27H1430.5H1742.02L1749.41 1394.19C1762.22 1387.34 1772.25 1372.46 1775.55 1355.55C1777.66 1344.61 1777.66 1001.39 1775.55 990.45C1772.25 973.537 1762.22 958.665 1749.41 951.812L1742.02 947.729L1433.14 947.437C1263.26 947.437 1122.54 947.729 1120.3 948.312ZM1744.66 963.185C1751.52 966.684 1755.88 971.933 1760.9 982.577L1764.46 990.013V1173V1355.99L1760.9 1363.42C1755.88 1374.07 1751.52 1379.32 1744.66 1382.82L1738.72 1385.88H1430.9C1135.08 1385.88 1122.68 1385.73 1117.66 1383.11C1110.93 1379.75 1102.61 1369.4 1099.18 1360.22C1096.67 1353.36 1096.54 1348.84 1096.14 1268.21L1095.75 1183.21L1051.66 1127.51C1027.37 1096.89 1007.7 1071.52 1007.97 1071.23C1008.36 1070.79 1081.62 1086.54 1092.84 1089.45L1095.62 1090.18L1096.14 1041.48C1096.67 997.595 1096.94 992.2 1099.31 985.785C1102.61 976.599 1110.8 966.246 1117.66 962.893C1122.68 960.268 1135.08 960.123 1430.9 960.123H1738.72L1744.66 963.185Z" fill="#FFF8F8"/>
<path d="M1219.1 1132.36H1203.42V1175H1192.88V1132.36H1177.41V1123.81H1219.1V1132.36ZM1243.54 1146.49C1242.15 1146.3 1240.93 1146.21 1239.88 1146.21C1236.04 1146.21 1233.52 1147.51 1232.32 1150.11V1175H1222.16V1136.96H1231.76L1232.04 1141.5C1234.08 1138 1236.9 1136.26 1240.51 1136.26C1241.64 1136.26 1242.69 1136.41 1243.68 1136.71L1243.54 1146.49ZM1263.29 1160.62L1270.32 1136.96H1281.22L1265.93 1180.91L1265.09 1182.91C1262.81 1187.88 1259.06 1190.36 1253.84 1190.36C1252.36 1190.36 1250.86 1190.14 1249.34 1189.7V1182L1250.88 1182.03C1252.8 1182.03 1254.23 1181.74 1255.17 1181.15C1256.13 1180.57 1256.88 1179.59 1257.42 1178.23L1258.62 1175.11L1245.29 1136.96H1256.23L1263.29 1160.62ZM1325.2 1175C1324.73 1174.09 1324.39 1172.95 1324.18 1171.59C1321.72 1174.33 1318.52 1175.7 1314.59 1175.7C1310.86 1175.7 1307.77 1174.62 1305.3 1172.47C1302.87 1170.31 1301.65 1167.59 1301.65 1164.31C1301.65 1160.28 1303.14 1157.19 1306.11 1155.03C1309.11 1152.88 1313.44 1151.79 1319.09 1151.76H1323.76V1149.58C1323.76 1147.82 1323.3 1146.42 1322.39 1145.36C1321.5 1144.31 1320.08 1143.78 1318.14 1143.78C1316.43 1143.78 1315.08 1144.19 1314.09 1145.01C1313.13 1145.83 1312.65 1146.96 1312.65 1148.39H1302.49C1302.49 1146.18 1303.17 1144.14 1304.53 1142.27C1305.89 1140.39 1307.81 1138.93 1310.3 1137.88C1312.78 1136.8 1315.57 1136.26 1318.66 1136.26C1323.35 1136.26 1327.07 1137.44 1329.81 1139.81C1332.57 1142.15 1333.96 1145.46 1333.96 1149.72V1166.21C1333.98 1169.82 1334.48 1172.55 1335.47 1174.4V1175H1325.2ZM1316.8 1167.93C1318.3 1167.93 1319.68 1167.61 1320.95 1166.95C1322.21 1166.27 1323.15 1165.37 1323.76 1164.24V1157.7H1319.96C1314.88 1157.7 1312.17 1159.46 1311.84 1162.98L1311.81 1163.57C1311.81 1164.84 1312.25 1165.88 1313.14 1166.7C1314.04 1167.52 1315.25 1167.93 1316.8 1167.93ZM1340.29 1155.7C1340.29 1149.86 1341.67 1145.16 1344.43 1141.6C1347.22 1138.04 1350.97 1136.26 1355.68 1136.26C1359.86 1136.26 1363.1 1137.69 1365.42 1140.55L1365.84 1136.96H1375.05V1173.73C1375.05 1177.06 1374.29 1179.96 1372.77 1182.42C1371.27 1184.88 1369.15 1186.75 1366.41 1188.04C1363.66 1189.33 1360.45 1189.98 1356.77 1189.98C1353.98 1189.98 1351.27 1189.41 1348.62 1188.29C1345.97 1187.19 1343.96 1185.76 1342.61 1184L1347.11 1177.81C1349.64 1180.65 1352.71 1182.07 1356.32 1182.07C1359.01 1182.07 1361.11 1181.34 1362.61 1179.89C1364.11 1178.46 1364.86 1176.42 1364.86 1173.77V1171.73C1362.52 1174.38 1359.43 1175.7 1355.61 1175.7C1351.04 1175.7 1347.34 1173.92 1344.5 1170.36C1341.69 1166.77 1340.29 1162.03 1340.29 1156.12V1155.7ZM1350.45 1156.44C1350.45 1159.88 1351.14 1162.59 1352.52 1164.56C1353.9 1166.5 1355.8 1167.48 1358.21 1167.48C1361.31 1167.48 1363.52 1166.32 1364.86 1164V1148C1363.5 1145.68 1361.31 1144.52 1358.29 1144.52C1355.85 1144.52 1353.93 1145.52 1352.52 1147.51C1351.14 1149.5 1350.45 1152.48 1350.45 1156.44ZM1404.94 1175C1404.47 1174.09 1404.13 1172.95 1403.92 1171.59C1401.46 1174.33 1398.26 1175.7 1394.32 1175.7C1390.59 1175.7 1387.5 1174.62 1385.04 1172.47C1382.6 1170.31 1381.38 1167.59 1381.38 1164.31C1381.38 1160.28 1382.87 1157.19 1385.85 1155.03C1388.85 1152.88 1393.17 1151.79 1398.82 1151.76H1403.5V1149.58C1403.5 1147.82 1403.04 1146.42 1402.12 1145.36C1401.23 1144.31 1399.82 1143.78 1397.87 1143.78C1396.16 1143.78 1394.81 1144.19 1393.83 1145.01C1392.87 1145.83 1392.39 1146.96 1392.39 1148.39H1382.23C1382.23 1146.18 1382.91 1144.14 1384.27 1142.27C1385.62 1140.39 1387.55 1138.93 1390.03 1137.88C1392.52 1136.8 1395.3 1136.26 1398.4 1136.26C1403.09 1136.26 1406.8 1137.44 1409.54 1139.81C1412.31 1142.15 1413.69 1145.46 1413.69 1149.72V1166.21C1413.71 1169.82 1414.22 1172.55 1415.2 1174.4V1175H1404.94ZM1396.54 1167.93C1398.04 1167.93 1399.42 1167.61 1400.68 1166.95C1401.95 1166.27 1402.89 1165.37 1403.5 1164.24V1157.7H1399.7C1394.61 1157.7 1391.91 1159.46 1391.58 1162.98L1391.54 1163.57C1391.54 1164.84 1391.99 1165.88 1392.88 1166.7C1393.77 1167.52 1394.99 1167.93 1396.54 1167.93ZM1432.22 1175H1422.02V1136.96H1432.22V1175ZM1421.43 1127.12C1421.43 1125.59 1421.93 1124.34 1422.94 1123.36C1423.97 1122.37 1425.36 1121.88 1427.12 1121.88C1428.86 1121.88 1430.24 1122.37 1431.27 1123.36C1432.3 1124.34 1432.82 1125.59 1432.82 1127.12C1432.82 1128.66 1432.29 1129.93 1431.23 1130.91C1430.2 1131.9 1428.83 1132.39 1427.12 1132.39C1425.41 1132.39 1424.03 1131.9 1422.97 1130.91C1421.94 1129.93 1421.43 1128.66 1421.43 1127.12ZM1449.97 1136.96L1450.29 1141.36C1453.01 1137.96 1456.65 1136.26 1461.22 1136.26C1465.25 1136.26 1468.25 1137.44 1470.22 1139.81C1472.19 1142.18 1473.2 1145.71 1473.25 1150.43V1175H1463.09V1150.67C1463.09 1148.52 1462.62 1146.96 1461.68 1146C1460.74 1145.01 1459.18 1144.52 1457 1144.52C1454.14 1144.52 1452 1145.74 1450.57 1148.18V1175H1440.41V1136.96H1449.97ZM1508.44 1136.96L1508.75 1141.21C1511.45 1137.91 1515.09 1136.26 1519.69 1136.26C1524.59 1136.26 1527.95 1138.19 1529.78 1142.06C1532.45 1138.19 1536.26 1136.26 1541.2 1136.26C1545.33 1136.26 1548.4 1137.46 1550.41 1139.88C1552.43 1142.27 1553.44 1145.88 1553.44 1150.71V1175H1543.24V1150.74C1543.24 1148.59 1542.82 1147.02 1541.98 1146.03C1541.13 1145.02 1539.64 1144.52 1537.51 1144.52C1534.46 1144.52 1532.36 1145.97 1531.18 1148.88L1531.22 1175H1521.06V1150.78C1521.06 1148.57 1520.62 1146.98 1519.76 1146C1518.89 1145.01 1517.41 1144.52 1515.33 1144.52C1512.45 1144.52 1510.36 1145.71 1509.07 1148.11V1175H1498.91V1136.96H1508.44ZM1583.32 1175C1582.85 1174.09 1582.51 1172.95 1582.3 1171.59C1579.84 1174.33 1576.64 1175.7 1572.7 1175.7C1568.98 1175.7 1565.88 1174.62 1563.42 1172.47C1560.98 1170.31 1559.77 1167.59 1559.77 1164.31C1559.77 1160.28 1561.25 1157.19 1564.23 1155.03C1567.23 1152.88 1571.55 1151.79 1577.2 1151.76H1581.88V1149.58C1581.88 1147.82 1581.42 1146.42 1580.51 1145.36C1579.62 1144.31 1578.2 1143.78 1576.25 1143.78C1574.54 1143.78 1573.2 1144.19 1572.21 1145.01C1571.25 1145.83 1570.77 1146.96 1570.77 1148.39H1560.61C1560.61 1146.18 1561.29 1144.14 1562.65 1142.27C1564.01 1140.39 1565.93 1138.93 1568.41 1137.88C1570.9 1136.8 1573.69 1136.26 1576.78 1136.26C1581.47 1136.26 1585.18 1137.44 1587.93 1139.81C1590.69 1142.15 1592.07 1145.46 1592.07 1149.72V1166.21C1592.1 1169.82 1592.6 1172.55 1593.59 1174.4V1175H1583.32ZM1574.92 1167.93C1576.42 1167.93 1577.8 1167.61 1579.07 1166.95C1580.33 1166.27 1581.27 1165.37 1581.88 1164.24V1157.7H1578.08C1573 1157.7 1570.29 1159.46 1569.96 1162.98L1569.93 1163.57C1569.93 1164.84 1570.37 1165.88 1571.26 1166.7C1572.15 1167.52 1573.37 1167.93 1574.92 1167.93ZM1612.04 1127.61V1136.96H1618.55V1144.41H1612.04V1163.4C1612.04 1164.8 1612.31 1165.81 1612.85 1166.42C1613.39 1167.03 1614.42 1167.34 1615.95 1167.34C1617.07 1167.34 1618.07 1167.25 1618.93 1167.09V1174.79C1616.94 1175.4 1614.89 1175.7 1612.78 1175.7C1605.66 1175.7 1602.02 1172.11 1601.88 1164.91V1144.41H1596.33V1136.96H1601.88V1127.61H1612.04ZM1641.71 1175.7C1636.14 1175.7 1631.59 1173.99 1628.07 1170.57C1624.58 1167.15 1622.84 1162.59 1622.84 1156.89V1155.91C1622.84 1152.09 1623.57 1148.68 1625.05 1145.68C1626.53 1142.66 1628.61 1140.34 1631.31 1138.72C1634.03 1137.08 1637.12 1136.26 1640.59 1136.26C1645.79 1136.26 1649.88 1137.9 1652.86 1141.18C1655.86 1144.46 1657.36 1149.11 1657.36 1155.14V1159.29H1633.14C1633.46 1161.77 1634.45 1163.76 1636.09 1165.26C1637.75 1166.76 1639.85 1167.51 1642.38 1167.51C1646.3 1167.51 1649.36 1166.09 1651.56 1163.26L1656.55 1168.85C1655.03 1171 1652.96 1172.69 1650.36 1173.91C1647.76 1175.11 1644.88 1175.7 1641.71 1175.7ZM1640.55 1144.48C1638.54 1144.48 1636.9 1145.16 1635.63 1146.52C1634.39 1147.88 1633.59 1149.83 1633.24 1152.36H1647.38V1151.55C1647.33 1149.3 1646.72 1147.57 1645.55 1146.35C1644.38 1145.11 1642.71 1144.48 1640.55 1144.48ZM1673.5 1159.29H1665.06L1663.86 1123.81H1674.69L1673.5 1159.29ZM1669.28 1164.84C1670.99 1164.84 1672.36 1165.34 1673.39 1166.35C1674.45 1167.36 1674.97 1168.65 1674.97 1170.22C1674.97 1171.77 1674.45 1173.04 1673.39 1174.05C1672.36 1175.06 1670.99 1175.56 1669.28 1175.56C1667.59 1175.56 1666.22 1175.06 1665.16 1174.05C1664.13 1173.04 1663.62 1171.77 1663.62 1170.22C1663.62 1168.67 1664.13 1167.39 1665.16 1166.39C1666.22 1165.36 1667.59 1164.84 1669.28 1164.84Z" fill="white"/>
</g>
<defs>
<clipPath id="clip0">
<rect width="792" height="452" fill="white" transform="translate(985 947)"/>
</clipPath>
</defs>
</svg>
