<svg width="26" height="26" viewBox="0 0 26 26" fill="none" xmlns="http://www.w3.org/2000/svg">
<path d="M25.4319 13.1039C25.4319 19.9999 19.8426 25.5933 12.9439 25.5933C6.04391 25.5933 0.45459 19.9999 0.45459 13.1039C0.45459 6.20521 6.04391 0.61325 12.9439 0.61325C19.8426 0.61325 25.4319 6.20521 25.4319 13.1039Z" fill="#FDFEFE"/>
<path d="M18.1346 1.75322C20.188 3.97989 21.452 6.94388 21.452 10.2092C21.452 17.1079 15.8613 22.6986 8.96399 22.6986C7.10532 22.6986 5.35463 22.2839 3.77063 21.5586C6.05063 24.0332 9.312 25.5933 12.944 25.5933C19.8427 25.5933 25.432 19.9999 25.432 13.1039C25.432 8.05854 22.4386 3.72522 18.1346 1.75322" fill="#78797B"/>
</svg>
