<svg width="55" height="55" viewBox="0 0 55 55" fill="none" xmlns="http://www.w3.org/2000/svg">
<path d="M27.068 54.1387C27.0453 54.1387 27.02 54.1387 26.996 54.1387C27.02 54.1387 27.044 54.1387 27.068 54.1387ZM26.9867 54.1387C26.964 54.1387 26.94 54.1387 26.9173 54.1387C26.94 54.1387 26.964 54.1387 26.9867 54.1387ZM26.9067 54.1387C26.8827 54.1387 26.86 54.1373 26.836 54.1373C26.86 54.1373 26.8827 54.1387 26.9067 54.1387ZM26.828 54.1373C26.8027 54.1373 26.78 54.1373 26.7547 54.1373C26.7787 54.1373 26.804 54.1373 26.828 54.1373ZM26.752 54.1373C11.948 53.9667 0 41.9133 0 27.0693C0 12.12 12.1187 -2.82355e-06 27.068 -2.82355e-06C41.704 -2.82355e-06 53.6254 11.616 54.1214 26.1307C53.6787 13.144 44.084 2.48402 31.5867 0.385349C37.3814 5.34935 41.0587 12.716 41.0587 20.944C41.0587 35.892 28.94 48.0093 13.9894 48.0093C12.4494 48.0093 10.9427 47.876 9.47334 47.6307C14.1307 51.62 20.156 54.0613 26.752 54.1373V54.1373ZM54.1373 27.0693C54.1373 27.0467 54.1373 27.0213 54.1373 26.9973C54.1373 27.0213 54.1373 27.0467 54.1373 27.0693ZM54.1373 26.988C54.1373 26.9654 54.1373 26.9427 54.1373 26.9187C54.1373 26.9414 54.1373 26.9654 54.1373 26.988ZM54.1373 26.908C54.1373 26.8853 54.136 26.8613 54.136 26.8387C54.136 26.8613 54.1373 26.8853 54.1373 26.908ZM54.136 26.828C54.136 26.8054 54.136 26.7814 54.136 26.7587C54.136 26.7827 54.136 26.804 54.136 26.828ZM54.136 26.7493C54.1347 26.7013 54.1347 26.6547 54.1333 26.6053C54.1347 26.6533 54.1347 26.7013 54.136 26.7493ZM54.1333 26.596C54.1333 26.572 54.132 26.5494 54.132 26.5254C54.132 26.5494 54.1333 26.572 54.1333 26.596ZM54.132 26.5173C54.132 26.4933 54.1307 26.4693 54.1307 26.4453C54.1307 26.4707 54.132 26.492 54.132 26.5173ZM54.1307 26.4387C54.128 26.336 54.1254 26.2333 54.1214 26.1307C54.1254 26.2333 54.128 26.336 54.1307 26.4387Z" fill="#9EA2A4"/>
<path d="M26.9959 54.1387C26.9933 54.1387 26.9893 54.1387 26.9866 54.1387C26.9906 54.1387 26.9933 54.1387 26.9959 54.1387ZM26.9173 54.1387C26.9133 54.1387 26.9106 54.1387 26.9066 54.1387C26.9106 54.1387 26.9133 54.1387 26.9173 54.1387ZM26.8359 54.1373C26.8333 54.1373 26.8306 54.1373 26.8279 54.1373C26.8306 54.1373 26.8333 54.1373 26.8359 54.1373ZM26.7546 54.1373C26.7533 54.1373 26.7533 54.1373 26.752 54.1373C26.7533 54.1373 26.7546 54.1373 26.7546 54.1373ZM54.1373 26.9973C54.1373 26.9933 54.1373 26.992 54.1373 26.988C54.1373 26.992 54.1373 26.9947 54.1373 26.9973ZM54.1373 26.9187C54.1373 26.916 54.1373 26.912 54.1373 26.908C54.1373 26.912 54.1373 26.9147 54.1373 26.9187ZM54.1359 26.8387C54.1359 26.836 54.1359 26.832 54.1359 26.828C54.1359 26.832 54.1359 26.8347 54.1359 26.8387ZM54.1359 26.7587C54.1359 26.756 54.1359 26.752 54.1359 26.7494C54.1359 26.752 54.1359 26.756 54.1359 26.7587ZM54.1333 26.6053C54.1333 26.6027 54.1333 26.5987 54.1333 26.596C54.1333 26.5987 54.1333 26.6027 54.1333 26.6053ZM54.1319 26.5254C54.1319 26.5227 54.1319 26.52 54.1319 26.5174C54.1319 26.52 54.1319 26.5227 54.1319 26.5254ZM54.1306 26.4453C54.1306 26.444 54.1306 26.44 54.1306 26.4387C54.1306 26.4413 54.1306 26.444 54.1306 26.4453Z" fill="#4C4E51"/>
<path d="M27.0679 54.1387C27.0439 54.1387 27.0199 54.1387 26.9959 54.1387C26.9933 54.1387 26.9906 54.1387 26.9866 54.1387C26.9639 54.1387 26.9399 54.1387 26.9173 54.1387C26.9133 54.1387 26.9106 54.1387 26.9066 54.1387C26.8826 54.1387 26.8599 54.1373 26.8359 54.1373C26.8333 54.1373 26.8306 54.1373 26.8279 54.1373C26.8039 54.1373 26.7786 54.1373 26.7546 54.1373C26.7546 54.1373 26.7533 54.1373 26.7519 54.1373C20.1559 54.0613 14.1306 51.62 9.47327 47.6307C10.9426 47.876 12.4493 48.0093 13.9893 48.0093C28.9399 48.0093 41.0586 35.892 41.0586 20.944C41.0586 12.716 37.3813 5.34935 31.5866 0.385355C44.0839 2.48402 53.6786 13.144 54.1213 26.1307C54.1253 26.2333 54.1279 26.336 54.1306 26.4387C54.1306 26.44 54.1306 26.444 54.1306 26.4453C54.1306 26.4693 54.1319 26.4934 54.1319 26.5174C54.1319 26.52 54.1319 26.5227 54.1319 26.5254C54.1319 26.5494 54.1333 26.572 54.1333 26.596C54.1333 26.5987 54.1333 26.6027 54.1333 26.6053C54.1346 26.6547 54.1346 26.7014 54.1359 26.7494C54.1359 26.752 54.1359 26.756 54.1359 26.7587C54.1359 26.7814 54.1359 26.8054 54.1359 26.828C54.1359 26.832 54.1359 26.836 54.1359 26.8387C54.1359 26.8613 54.1373 26.8853 54.1373 26.908C54.1373 26.912 54.1373 26.916 54.1373 26.9187C54.1373 26.9427 54.1373 26.9654 54.1373 26.988C54.1373 26.992 54.1373 26.9933 54.1373 26.9973C54.1373 27.0213 54.1373 27.0467 54.1373 27.0693C54.1373 42.0187 42.0186 54.1387 27.0679 54.1387" fill="#585A5E"/>
<path d="M11.4013 7.24942C8.76532 7.24942 8.76532 11.3387 11.4013 11.3387C14.0373 11.3387 14.0373 7.24942 11.4013 7.24942Z" fill="#7F8385"/>
<path d="M24.072 8.06798C21.436 8.06798 21.436 12.1547 24.072 12.1547C26.7066 12.1547 26.7066 8.06798 24.072 8.06798Z" fill="#7F8385"/>
<path d="M16.7147 22.7827C14.0787 22.7827 14.0787 26.8694 16.7147 26.8694C19.3507 26.8694 19.3507 22.7827 16.7147 22.7827Z" fill="#7F8385"/>
<path d="M6.49739 24.008C3.86139 24.008 3.86139 28.0947 6.49739 28.0947C9.13205 28.0947 9.13205 24.008 6.49739 24.008Z" fill="#7F8385"/>
<path d="M6.49739 36.2707C3.86139 36.2707 3.86139 40.3574 6.49739 40.3574C9.13205 40.3574 9.13205 36.2707 6.49739 36.2707Z" fill="#7F8385"/>
<path d="M31.4293 15.8333C28.7933 15.8333 28.7933 19.9187 31.4293 19.9187C34.0639 19.9187 34.0639 15.8333 31.4293 15.8333Z" fill="#7F8385"/>
<path d="M19.9839 32.9986C17.3493 32.9986 17.3493 37.0853 19.9839 37.0853C22.6199 37.0853 22.6199 32.9986 19.9839 32.9986Z" fill="#7F8385"/>
</svg>
