<svg width="136" height="80" viewBox="0 0 136 80" fill="none" xmlns="http://www.w3.org/2000/svg">
<path d="M131.999 11.5467C134.105 10.896 78.1386 41.192 73.4239 44.748C69.8573 47.4387 66.0786 46.4054 65.2559 44.7147C64.4332 43.0227 65.5773 39.3827 69.8653 38.1187C77.1226 35.98 125.736 13.472 131.999 11.5467" fill="#EF3432"/>
<path d="M119.345 17.5774C120.645 17.1787 75.9719 41.1014 73.0706 43.292C70.8746 44.9507 68.5453 44.312 68.0399 43.2707C67.5333 42.2294 68.2373 39.9867 70.88 39.2081C75.348 37.8921 115.491 18.764 119.345 17.5774Z" fill="#F57B7E"/>
<path d="M76.8426 38.78C77.4866 40.1027 72.8946 44.0147 71.0013 44.936C69.1106 45.856 67.0533 45.5307 66.412 44.2107C65.7693 42.892 66.7826 41.072 68.676 40.152C70.5666 39.232 76.2013 37.46 76.8426 38.78" fill="white"/>
<path d="M114.703 35.8694C117.336 34.8774 58.112 71.7627 52.3973 76.66C48.0707 80.368 43.176 79.3534 41.9947 77.264C40.8147 75.18 41.9827 70.4534 47.3453 68.5067C56.412 65.2094 106.884 38.82 114.703 35.8694Z" fill="#EF3432"/>
<path d="M103.971 41.8827C105.424 41.3334 55.3347 71.5414 52.172 74.2547C49.7733 76.3067 47.064 75.744 46.412 74.588C45.756 73.432 46.4026 70.8174 49.3706 69.7374C54.392 67.9134 99.6386 43.5174 103.971 41.8827" fill="#F57B7E"/>
<path d="M55.888 69.62C56.66 71.2054 51.144 75.908 48.8693 77.012C46.5973 78.1187 44.128 77.7294 43.3586 76.144C42.5853 74.5574 43.8053 72.3747 46.0773 71.268C48.3493 70.164 55.1173 68.0347 55.888 69.62" fill="white"/>
<path d="M135.572 33.688C137.227 33.064 110.027 50.7347 106.435 53.8107C103.717 56.14 100.64 55.5014 99.8986 54.1907C99.1546 52.88 99.8906 49.9107 103.257 48.6867C108.957 46.6134 130.66 35.5414 135.572 33.688" fill="#EF3432"/>
<path d="M131.255 36.5081C132.069 36.2014 106.721 51.2507 104.947 52.7707C103.608 53.9187 102.091 53.604 101.725 52.9587C101.361 52.312 101.721 50.848 103.383 50.244C106.193 49.2227 128.832 37.4227 131.255 36.5081" fill="#F57B7E"/>
<path d="M108.881 49.292C109.352 50.2574 105.985 53.1267 104.597 53.804C103.209 54.4774 101.701 54.2401 101.231 53.2721C100.759 52.3054 101.505 50.972 102.891 50.2947C104.279 49.62 108.409 48.3214 108.881 49.292Z" fill="white"/>
<path d="M53.3827 40.86C54.8133 40.86 54.8133 38.6387 53.3827 38.6387C51.9507 38.6387 51.9507 40.86 53.3827 40.86Z" fill="#FDFEFE"/>
<path d="M37.0853 45.952C38.5173 45.952 38.5173 43.7307 37.0853 43.7307C35.6547 43.7307 35.6547 45.952 37.0853 45.952Z" fill="#FDFEFE"/>
<path d="M35.048 59.1947C36.4813 59.1947 36.4813 56.972 35.048 56.972C33.6173 56.972 33.6173 59.1947 35.048 59.1947Z" fill="#FDFEFE"/>
<path d="M1.43604 61.7387C2.8667 61.7387 2.8667 59.52 1.43604 59.52C0.00537044 59.52 0.00537044 61.7387 1.43604 61.7387Z" fill="#FDFEFE"/>
<path d="M19.7706 58.684C21.2013 58.684 21.2013 56.464 19.7706 56.464C18.336 56.464 18.336 58.684 19.7706 58.684Z" fill="#FDFEFE"/>
<path d="M23.3346 41.876C24.7653 41.876 24.7653 39.6587 23.3346 39.6587C21.9039 39.6587 21.9039 41.876 23.3346 41.876Z" fill="#FDFEFE"/>
<path d="M56.9467 58.684C58.3773 58.684 58.3773 56.464 56.9467 56.464C55.516 56.464 55.516 58.684 56.9467 58.684Z" fill="#FDFEFE"/>
<path d="M63.5679 25.0707C64.9999 25.0707 64.9999 22.8507 63.5679 22.8507C62.1386 22.8507 62.1386 25.0707 63.5679 25.0707Z" fill="#FDFEFE"/>
<path d="M51.8546 11.3201C53.2866 11.3201 53.2866 9.10005 51.8546 9.10005C50.4226 9.10005 50.4226 11.3201 51.8546 11.3201Z" fill="#FDFEFE"/>
<path d="M46.2506 30.6734C47.6853 30.6734 47.6853 28.4547 46.2506 28.4547C44.8199 28.4547 44.8199 30.6734 46.2506 30.6734Z" fill="#FDFEFE"/>
<path d="M17.2227 16.4134C18.6573 16.4134 18.6573 14.1947 17.2227 14.1947C15.792 14.1947 15.792 16.4134 17.2227 16.4134Z" fill="#FDFEFE"/>
<path d="M28.9373 24.0507C30.368 24.0507 30.368 21.8334 28.9373 21.8334C27.5067 21.8334 27.5067 24.0507 28.9373 24.0507Z" fill="#FDFEFE"/>
<path d="M74.2613 3.17339C75.6946 3.17339 75.6946 0.952048 74.2613 0.952048C72.8306 0.952048 72.8306 3.17339 74.2613 3.17339Z" fill="#FDFEFE"/>
<path d="M71.208 20.4867C72.6386 20.4867 72.6386 18.2654 71.208 18.2654C69.7733 18.2654 69.7733 20.4867 71.208 20.4867Z" fill="#FDFEFE"/>
<path d="M95.144 20.4867C96.576 20.4867 96.576 18.2654 95.144 18.2654C93.7134 18.2654 93.7134 20.4867 95.144 20.4867Z" fill="#FDFEFE"/>
<path d="M88.0147 9.28404C89.4467 9.28404 89.4467 7.0627 88.0147 7.0627C86.584 7.0627 86.584 9.28404 88.0147 9.28404Z" fill="#FDFEFE"/>
<path d="M95.6532 38.312C97.0839 38.312 97.0839 36.0907 95.6532 36.0907C94.2212 36.0907 94.2212 38.312 95.6532 38.312Z" fill="#FDFEFE"/>
<path d="M116.027 28.6374C117.457 28.6374 117.457 26.4174 116.027 26.4174C114.591 26.4174 114.591 28.6374 116.027 28.6374Z" fill="#FDFEFE"/>
<path d="M81.9027 27.616C83.3333 27.616 83.3333 25.3974 81.9027 25.3974C80.472 25.3974 80.472 27.616 81.9027 27.616Z" fill="#FDFEFE"/>
<path d="M70.696 53.5907C72.1294 53.5907 72.1294 51.3707 70.696 51.3707C69.2654 51.3707 69.2654 53.5907 70.696 53.5907Z" fill="#FDFEFE"/>
<path d="M94.6373 60.7214C96.068 60.7214 96.068 58.5 94.6373 58.5C93.2013 58.5 93.2013 60.7214 94.6373 60.7214Z" fill="#FDFEFE"/>
<path d="M107.367 13.36C108.799 13.36 108.799 11.1374 107.367 11.1374C105.936 11.1374 105.936 13.36 107.367 13.36Z" fill="#FDFEFE"/>
</svg>
