<svg width="83" height="83" viewBox="0 0 83 83" fill="none" xmlns="http://www.w3.org/2000/svg">
<path d="M82.6093 41.6679C82.6093 64.3305 64.236 82.7052 41.5693 82.7052C18.904 82.7052 0.527954 64.3305 0.527954 41.6679C0.527954 18.9999 18.904 0.626559 41.5693 0.626559C64.236 0.626559 82.6093 18.9999 82.6093 41.6679" fill="#E77018"/>
<path d="M48.4173 1.2052C57.2039 8.73186 62.7786 19.9012 62.7786 32.3772C62.7786 55.0425 44.4053 73.4172 21.7386 73.4172C19.404 73.4172 17.1186 73.2132 14.8893 72.8372C22.0653 78.9852 31.38 82.7052 41.5693 82.7052C64.236 82.7052 82.6093 64.3305 82.6093 41.6679C82.6093 21.3359 67.8226 4.46653 48.4173 1.2052Z" fill="#6E3818"/>
</svg>
